<svg width="350" height="333" viewBox="0 0 350 333" fill="none" xmlns="http://www.w3.org/2000/svg">
<path d="M175 333C271.65 333 350 286.803 350 229.817C350 172.83 271.65 126.634 175 126.634C78.3502 126.634 0 172.83 0 229.817C0 286.803 78.3502 333 175 333Z" fill="#C8D7E7"/>
<path d="M290.676 276.538C314.838 276.538 334.426 264.986 334.426 250.735C334.426 236.484 314.838 224.931 290.676 224.931C266.513 224.931 246.926 236.484 246.926 250.735C246.926 264.986 266.513 276.538 290.676 276.538Z" fill="#E3EBF3"/>
<path d="M134.041 306.482L25.4987 242.478C23.7192 241.429 23.7192 239.728 25.4987 238.672L182.415 146.146C183.413 145.625 184.518 145.353 185.639 145.353C186.76 145.353 187.865 145.625 188.863 146.146L297.375 210.134C299.155 211.183 299.155 212.884 297.375 213.933L140.49 306.482C139.49 306.999 138.386 307.269 137.265 307.269C136.145 307.269 135.04 306.999 134.041 306.482Z" fill="#E3EBF3"/>
<path d="M312.76 235.938C311.824 229.382 314.22 204.41 319.657 194.902C325.094 185.395 334.106 175.421 341.954 176.913C349.224 178.295 349.802 187.694 342.274 195.096C334.745 202.499 323.216 212.107 321.041 223.292L315.109 242.33L312.76 235.938Z" fill="#66BB6A"/>
<path opacity="0.1" d="M312.76 235.938C311.824 229.382 314.22 204.41 319.657 194.902C325.094 185.395 334.106 175.421 341.954 176.913C349.224 178.295 349.802 187.694 342.274 195.096C334.745 202.499 323.216 212.107 321.041 223.292L315.109 242.33L312.76 235.938Z" fill="black"/>
<path d="M314.501 233.879C314.6 233.852 314.688 233.793 314.751 233.71C314.814 233.627 314.849 233.526 314.851 233.421C315.186 210.383 329.612 189.038 339.452 183.095C339.56 183.031 339.638 182.925 339.67 182.801C339.701 182.677 339.683 182.545 339.62 182.435C339.556 182.325 339.452 182.245 339.331 182.213C339.21 182.181 339.081 182.199 338.973 182.264C328.942 188.323 314.243 210.018 313.878 233.405C313.876 233.469 313.888 233.531 313.91 233.59C313.933 233.649 313.967 233.703 314.01 233.748C314.053 233.794 314.105 233.83 314.162 233.855C314.218 233.88 314.279 233.894 314.341 233.895C314.395 233.902 314.45 233.897 314.501 233.879Z" fill="white"/>
<path d="M318.03 245.903C318.532 242.066 321.163 235.448 327.11 228.892C334.395 220.861 346.487 216.465 348.175 211.804C350.19 206.196 345.582 202.367 337.718 204.922C327.155 208.355 315.368 221.824 315.52 239.153L318.03 245.903Z" fill="#66BB6A"/>
<path d="M315.908 242.276C315.997 242.253 316.077 242.205 316.14 242.138C316.203 242.071 316.247 241.987 316.265 241.895C320.25 221.7 336.19 210.864 342.699 209C342.82 208.972 342.926 208.897 342.994 208.792C343.062 208.686 343.087 208.557 343.065 208.433C343.049 208.371 343.021 208.313 342.983 208.262C342.944 208.212 342.896 208.169 342.842 208.138C342.787 208.107 342.727 208.087 342.664 208.081C342.602 208.074 342.539 208.08 342.479 208.099C335.285 210.157 319.437 221.148 315.376 241.74C315.364 241.802 315.364 241.866 315.376 241.928C315.388 241.991 315.412 242.05 315.447 242.103C315.481 242.155 315.526 242.2 315.577 242.236C315.629 242.271 315.687 242.295 315.748 242.307C315.803 242.307 315.857 242.296 315.908 242.276Z" fill="white"/>
<path d="M96.1466 18.4562L90.3594 21.8738C90.3892 21.616 90.4044 21.3567 90.405 21.0971V19.3883C90.405 16.3356 88.3061 15.1006 85.7205 16.623C84.611 17.3254 83.6598 18.2599 82.9295 19.3649C82.5113 15.5278 79.5607 14.0986 75.9864 16.2114C72.1156 18.495 68.9749 24.041 68.9749 28.6393V31.2026C68.9526 32.2245 69.1553 33.2385 69.568 34.1698L64.7314 36.966C63.9743 37.4695 63.3442 38.1483 62.8922 38.9473C62.4403 39.7463 62.1794 40.643 62.1306 41.5644C62.1306 43.2577 63.2941 43.9412 64.7314 43.1179L96.1161 24.608C96.8723 24.1053 97.5018 23.4277 97.9537 22.6302C98.4055 21.8326 98.667 20.9375 98.717 20.0174C98.7474 18.3008 97.5839 17.6095 96.1466 18.4562Z" fill="#CCE8CD"/>
<path d="M23.0119 26.0917L26.2059 23.5673V16.3901C26.2059 10.6888 30.6547 4.0709 35.4837 1.22024C40.3203 -1.63042 44.2367 0.684283 44.2367 6.38561V7.42645C45.2538 5.7382 46.6448 4.31746 48.2976 3.27862C51.773 1.22801 54.5944 2.89024 54.5944 6.99147V7.46529L59.0507 4.83988C61.3321 3.48834 63.1953 4.58355 63.1953 7.28663C63.1166 8.75538 62.7004 10.1846 61.9804 11.4584C61.2603 12.7323 60.2567 13.8151 59.0507 14.6191L23.0119 35.8709C20.7305 37.2225 18.8597 36.1273 18.8597 33.4242C18.9357 31.9539 19.3515 30.5229 20.0732 29.2483C20.795 27.9738 21.802 26.8921 23.0119 26.0917Z" fill="#CCE8CD"/>
<path d="M32.1984 233.67C32.2851 234.876 32.6484 236.044 33.2587 237.08C33.869 238.116 34.7093 238.992 35.7117 239.635L134.185 297.705C135.276 298.268 136.481 298.561 137.703 298.561C138.924 298.561 140.129 298.268 141.22 297.705L287.162 211.649C288.222 211.074 289.108 210.215 289.726 209.165C290.345 208.115 290.671 206.913 290.671 205.687C290.671 204.462 290.345 203.259 289.726 202.209C289.108 201.159 288.222 200.3 287.162 199.726L188.688 141.633C187.599 141.066 186.394 140.771 185.171 140.771C183.949 140.771 182.743 141.066 181.654 141.633L35.7117 227.712C34.7094 228.354 33.8691 229.227 33.2587 230.262C32.6484 231.297 32.2851 232.465 32.1984 233.67Z" fill="#37474F"/>
<path d="M137.737 290.768V298.536C136.513 298.564 135.303 298.27 134.223 297.681L35.7118 239.635C34.6828 239.08 33.8161 238.257 33.1999 237.249C32.5836 236.241 32.2398 235.084 32.2035 233.896C32.1672 232.708 32.4396 231.532 32.9931 230.487C33.5466 229.441 34.3613 228.564 35.3544 227.945C33.7802 229.095 33.9019 230.788 35.7118 231.829L134.193 289.906C135.281 290.502 136.502 290.799 137.737 290.768Z" fill="#263238"/>
<path d="M28.898 227.852C27.9196 227.172 27.1116 226.266 26.5396 225.209C25.9675 224.151 25.6474 222.97 25.6051 221.762V101.716C25.6719 100.471 26.0248 99.2598 26.6352 98.1802C27.2455 97.1006 28.0963 96.1831 29.1185 95.5018L175.061 9.44602C176.111 8.87554 177.278 8.56625 178.467 8.54331C179.657 8.52036 180.835 8.78441 181.905 9.31397C182.882 9.99506 183.689 10.9009 184.261 11.9586C184.833 13.0162 185.154 14.1962 185.198 15.4037V135.419C185.132 136.664 184.779 137.875 184.169 138.955C183.558 140.035 182.707 140.952 181.685 141.633L35.7118 227.712C34.6663 228.279 33.5048 228.587 32.3212 228.612C31.1376 228.636 29.9649 228.376 28.898 227.852Z" fill="#455A64"/>
<path d="M35.3011 227.93C34.2914 228.391 33.1954 228.621 32.0895 228.605C30.9836 228.589 29.8944 228.327 28.898 227.836C27.9196 227.157 27.1116 226.251 26.5396 225.193C25.9675 224.135 25.6474 222.954 25.6051 221.747V101.716C25.6439 100.466 26.0003 99.2482 26.6393 98.1817L33.225 102.065C32.5959 103.133 32.2426 104.347 32.1984 105.592V225.638C32.1984 227.759 33.552 228.714 35.3011 227.93Z" fill="#263238"/>
<path d="M32.1984 105.607V225.638C32.1984 227.968 33.7725 228.854 35.7117 227.712L181.654 141.633C182.677 140.952 183.528 140.035 184.138 138.955C184.749 137.875 185.101 136.664 185.167 135.419V15.4037C185.167 13.12 183.601 12.1879 181.654 13.3375L35.7117 99.3856C34.6894 100.068 33.8387 100.987 33.2283 102.068C32.618 103.149 32.2652 104.361 32.1984 105.607Z" fill="#37474F"/>
<path d="M35.7117 231.852L134.185 289.929C135.276 290.492 136.481 290.786 137.703 290.786C138.924 290.786 140.129 290.492 141.22 289.929L287.162 203.873C289.101 202.724 289.101 200.867 287.162 199.726L188.688 141.633C187.599 141.066 186.394 140.771 185.171 140.771C183.949 140.771 182.743 141.066 181.654 141.633L35.7117 227.712C33.7725 228.854 33.7725 230.71 35.7117 231.852Z" fill="#455A64"/>
<path d="M37.6053 104L178.711 20.8099C179.875 20.1264 180.825 20.6856 180.825 22.0605V132.801C180.785 133.549 180.572 134.276 180.205 134.924C179.837 135.572 179.326 136.122 178.711 136.53L37.6053 219.719C36.4418 220.403 35.4912 219.844 35.4912 218.469V107.728C35.5318 106.98 35.7444 106.253 36.1118 105.606C36.4791 104.958 36.9908 104.407 37.6053 104Z" fill="#66BB6A"/>
<path opacity="0.4" d="M37.6053 104L178.711 20.8099C179.875 20.1264 180.825 20.6856 180.825 22.0605V132.801C180.785 133.549 180.572 134.276 180.205 134.924C179.837 135.572 179.326 136.122 178.711 136.53L37.6053 219.719C36.4418 220.403 35.4912 219.844 35.4912 218.469V107.728C35.5318 106.98 35.7444 106.253 36.1118 105.606C36.4791 104.958 36.9908 104.407 37.6053 104Z" fill="black"/>
<path d="M47.1417 228.745L183.418 148.398C183.962 148.115 184.564 147.967 185.175 147.967C185.786 147.967 186.388 148.115 186.932 148.398L193.327 152.166C194.293 152.74 194.293 153.665 193.327 154.24L57.0355 234.578C56.4915 234.862 55.8895 235.01 55.2788 235.01C54.668 235.01 54.066 234.862 53.5221 234.578L47.1417 230.819C46.1759 230.244 46.1759 229.32 47.1417 228.745Z" fill="#37474F"/>
<path d="M63.6287 238.47L199.898 158.116C200.442 157.832 201.044 157.684 201.655 157.684C202.265 157.684 202.867 157.832 203.411 158.116L242.758 181.317C243.732 181.892 243.732 182.824 242.758 183.391L106.633 263.644C106.087 263.926 105.484 264.072 104.873 264.072C104.261 264.072 103.658 263.926 103.112 263.644L63.6363 240.536C62.6629 239.969 62.6553 239.037 63.6287 238.47Z" fill="#263238"/>
<path d="M183.365 192.284L187.654 189.752C187.837 189.644 187.844 189.473 187.654 189.364L183.152 186.684C183.05 186.634 182.938 186.609 182.825 186.609C182.712 186.609 182.6 186.634 182.498 186.684L178.202 189.216C178.027 189.325 178.019 189.496 178.202 189.597L182.764 192.269C182.858 192.313 182.96 192.337 183.063 192.34C183.167 192.343 183.269 192.324 183.365 192.284ZM176.011 182.886L171.722 185.418C171.684 185.432 171.651 185.458 171.627 185.492C171.604 185.526 171.591 185.567 171.591 185.608C171.591 185.65 171.604 185.691 171.627 185.725C171.651 185.759 171.684 185.785 171.722 185.799L176.285 188.471C176.387 188.52 176.499 188.546 176.612 188.546C176.725 188.546 176.837 188.52 176.939 188.471L181.236 185.938C181.277 185.926 181.314 185.901 181.339 185.866C181.365 185.831 181.379 185.788 181.379 185.744C181.379 185.7 181.365 185.658 181.339 185.623C181.314 185.588 181.277 185.562 181.236 185.55L176.673 182.878C176.571 182.831 176.461 182.807 176.349 182.808C176.237 182.81 176.127 182.836 176.027 182.886H176.011ZM162.148 191.057L154.893 195.337C154.711 195.446 154.703 195.624 154.893 195.725L159.456 198.397C159.558 198.447 159.67 198.473 159.783 198.473C159.896 198.473 160.008 198.447 160.11 198.397L167.372 194.118C167.555 194.009 167.555 193.838 167.372 193.729L162.81 191.065C162.71 191.011 162.6 190.983 162.487 190.981C162.375 190.98 162.264 191.006 162.163 191.057H162.148ZM169.753 186.583L165.456 189.115C165.274 189.224 165.274 189.395 165.456 189.496L170.019 192.168C170.121 192.218 170.233 192.243 170.346 192.243C170.459 192.243 170.571 192.218 170.673 192.168L174.962 189.636C175.145 189.527 175.145 189.356 174.962 189.247L170.399 186.575C170.299 186.526 170.19 186.501 170.079 186.502C169.968 186.504 169.859 186.531 169.76 186.583H169.753ZM152.946 196.51L148.657 199.034C148.475 199.143 148.475 199.322 148.657 199.423L153.22 202.095C153.322 202.144 153.434 202.17 153.547 202.17C153.66 202.17 153.772 202.144 153.874 202.095L158.163 199.57C158.346 199.462 158.346 199.291 158.163 199.182L153.6 196.51C153.498 196.46 153.386 196.434 153.273 196.434C153.16 196.434 153.048 196.46 152.946 196.51ZM146.68 200.207L142.383 202.739C142.345 202.753 142.312 202.779 142.288 202.813C142.264 202.847 142.252 202.888 142.252 202.93C142.252 202.972 142.264 203.012 142.288 203.046C142.312 203.08 142.345 203.106 142.383 203.12L146.863 205.792C146.964 205.846 147.076 205.874 147.19 205.874C147.303 205.874 147.416 205.846 147.517 205.792L151.806 203.268C151.988 203.159 151.988 202.988 151.806 202.879L147.281 200.207C147.183 200.162 147.076 200.139 146.969 200.139C146.862 200.139 146.755 200.162 146.657 200.207H146.68ZM164.46 211.082L168.749 208.55C168.931 208.441 168.931 208.27 168.749 208.169L164.224 205.497C164.122 205.447 164.01 205.421 163.897 205.421C163.784 205.421 163.672 205.447 163.57 205.497L159.273 208.029C159.232 208.041 159.196 208.067 159.17 208.102C159.144 208.137 159.13 208.179 159.13 208.223C159.13 208.267 159.144 208.31 159.17 208.345C159.196 208.38 159.232 208.405 159.273 208.418L163.798 211.09C163.899 211.136 164.008 211.159 164.119 211.157C164.229 211.156 164.338 211.13 164.437 211.082H164.46ZM158.186 214.779L162.483 212.247C162.665 212.138 162.665 211.967 162.483 211.866L157.935 209.21C157.833 209.16 157.721 209.134 157.608 209.134C157.495 209.134 157.383 209.16 157.281 209.21L152.992 211.742C152.809 211.851 152.809 212.022 152.992 212.13L157.517 214.802C157.62 214.847 157.731 214.868 157.843 214.864C157.954 214.86 158.064 214.831 158.163 214.779H158.186ZM151.92 218.476L156.209 215.944C156.247 215.93 156.281 215.904 156.304 215.87C156.328 215.836 156.34 215.796 156.34 215.754C156.34 215.712 156.328 215.671 156.304 215.637C156.281 215.603 156.247 215.578 156.209 215.564L151.646 212.892C151.545 212.838 151.433 212.81 151.319 212.81C151.205 212.81 151.093 212.838 150.992 212.892L146.718 215.424C146.536 215.533 146.536 215.703 146.718 215.812L151.281 218.484C151.378 218.527 151.484 218.548 151.59 218.547C151.696 218.545 151.8 218.521 151.897 218.476H151.92ZM145.646 222.174L149.935 219.641C150.117 219.541 150.125 219.362 149.935 219.261L145.372 216.589C145.27 216.539 145.158 216.513 145.045 216.513C144.932 216.513 144.82 216.539 144.718 216.589L140.429 219.113C140.246 219.222 140.239 219.393 140.429 219.502L144.954 222.174C145.058 222.226 145.172 222.253 145.288 222.253C145.404 222.253 145.519 222.226 145.623 222.174H145.646ZM177.107 196.005L181.403 193.473C181.445 193.461 181.481 193.435 181.507 193.4C181.533 193.365 181.547 193.323 181.547 193.279C181.547 193.235 181.533 193.192 181.507 193.157C181.481 193.122 181.445 193.097 181.403 193.085L176.84 190.42C176.739 190.366 176.627 190.338 176.513 190.338C176.4 190.338 176.287 190.366 176.186 190.42L171.958 192.898C171.776 193.007 171.776 193.178 171.958 193.279L176.483 195.951C176.577 196.004 176.682 196.037 176.789 196.046C176.897 196.056 177.005 196.042 177.107 196.005ZM170.711 207.408L180.278 201.761C180.46 201.652 180.46 201.481 180.278 201.38L169.281 194.894C169.179 194.845 169.067 194.819 168.954 194.819C168.841 194.819 168.729 194.845 168.627 194.894L163.677 197.815C163.494 197.924 163.494 198.095 163.677 198.203L169.502 201.637C169.54 201.65 169.574 201.676 169.597 201.71C169.621 201.744 169.633 201.785 169.633 201.827C169.633 201.869 169.621 201.909 169.597 201.943C169.574 201.977 169.54 202.003 169.502 202.017L165.54 204.347C165.357 204.456 165.357 204.627 165.54 204.736L170.103 207.4C170.199 207.444 170.303 207.465 170.409 207.462C170.514 207.46 170.617 207.433 170.711 207.384V207.408ZM140.383 203.928L136.094 206.46C136.056 206.474 136.022 206.5 135.999 206.534C135.975 206.568 135.963 206.609 135.963 206.65C135.963 206.692 135.975 206.733 135.999 206.767C136.022 206.801 136.056 206.827 136.094 206.841L140.619 209.513C140.721 209.562 140.833 209.588 140.946 209.588C141.059 209.588 141.171 209.562 141.273 209.513L145.57 206.981C145.611 206.968 145.647 206.943 145.673 206.908C145.699 206.873 145.713 206.83 145.713 206.786C145.713 206.742 145.699 206.7 145.673 206.665C145.647 206.63 145.611 206.604 145.57 206.592L141.045 203.92C140.943 203.867 140.83 203.838 140.716 203.835C140.601 203.832 140.488 203.856 140.383 203.905V203.928ZM134.117 207.625L129.82 210.157C129.638 210.266 129.638 210.437 129.82 210.538L134.383 213.21C134.485 213.26 134.597 213.286 134.71 213.286C134.823 213.286 134.935 213.26 135.037 213.21L139.326 210.678C139.509 210.569 139.509 210.398 139.326 210.289L134.763 207.617C134.664 207.563 134.554 207.533 134.442 207.531C134.33 207.528 134.218 207.552 134.117 207.602V207.625ZM101.074 248.047C101.177 248.097 101.288 248.123 101.401 248.123C101.515 248.123 101.626 248.097 101.728 248.047L106.018 245.515C106.2 245.406 106.208 245.235 106.018 245.127L101.455 242.462C101.354 242.409 101.242 242.38 101.128 242.38C101.014 242.38 100.902 242.409 100.801 242.462L96.5116 244.995C96.3291 245.103 96.3215 245.274 96.5116 245.375L101.074 248.047ZM83.9486 237.173L79.6596 239.697C79.477 239.806 79.4694 239.977 79.6596 240.085L84.1844 242.757C84.2865 242.807 84.3982 242.833 84.5114 242.833C84.6245 242.833 84.7362 242.807 84.8384 242.757L89.1274 240.225C89.31 240.124 89.3176 239.946 89.1274 239.845L84.5646 237.173C84.4686 237.125 84.3633 237.101 84.2566 237.101C84.1499 237.101 84.0447 237.125 83.9486 237.173ZM92.9602 245.204C93.0612 245.258 93.1734 245.286 93.2872 245.286C93.4011 245.286 93.5133 245.258 93.6142 245.204L97.9033 242.672C98.0858 242.563 98.0858 242.392 97.9033 242.291L93.3405 239.619C93.2395 239.566 93.1273 239.538 93.0135 239.538C92.8996 239.538 92.7874 239.566 92.6865 239.619L88.3974 242.152C88.2149 242.26 88.2149 242.431 88.3974 242.54L92.9602 245.204ZM111.501 249.911L115.79 247.379C115.828 247.365 115.861 247.339 115.885 247.305C115.909 247.271 115.921 247.231 115.921 247.189C115.921 247.147 115.909 247.106 115.885 247.072C115.861 247.038 115.828 247.012 115.79 246.999L111.227 244.327C111.125 244.277 111.013 244.251 110.9 244.251C110.787 244.251 110.675 244.277 110.573 244.327L106.284 246.851C106.101 246.96 106.101 247.131 106.284 247.239L110.847 249.911C110.948 249.963 111.059 249.992 111.172 249.995C111.285 249.997 111.397 249.974 111.501 249.927V249.911ZM104.573 253.616C104.675 253.666 104.787 253.692 104.9 253.692C105.013 253.692 105.125 253.666 105.227 253.616L109.516 251.084C109.698 250.983 109.706 250.805 109.516 250.704L105.037 248.047C104.934 247.997 104.823 247.972 104.71 247.972C104.596 247.972 104.485 247.997 104.383 248.047L100.093 250.572C99.9109 250.68 99.9033 250.851 100.093 250.96L104.573 253.616ZM90.2225 233.468L85.9258 236C85.8845 236.012 85.8482 236.037 85.8223 236.072C85.7964 236.107 85.7824 236.15 85.7824 236.194C85.7824 236.238 85.7964 236.281 85.8223 236.316C85.8482 236.351 85.8845 236.376 85.9258 236.388L90.4507 239.06C90.5528 239.11 90.6645 239.136 90.7777 239.136C90.8908 239.136 91.0025 239.11 91.1047 239.06L95.3937 236.528C95.5763 236.419 95.5763 236.248 95.3937 236.147L90.8309 233.475C90.7352 233.431 90.631 233.409 90.5259 233.41C90.4207 233.411 90.3171 233.436 90.2225 233.483V233.468ZM121.569 214.981L117.28 217.513C117.098 217.622 117.098 217.793 117.28 217.894L121.843 220.566C121.944 220.62 122.056 220.648 122.17 220.648C122.284 220.648 122.396 220.62 122.497 220.566L126.786 218.034C126.969 217.925 126.969 217.754 126.786 217.645L122.223 214.981C122.121 214.93 122.008 214.904 121.894 214.907C121.78 214.91 121.669 214.94 121.569 214.997V214.981ZM96.4736 229.739L92.1845 232.271C92.002 232.38 92.002 232.551 92.1845 232.66L96.7094 235.324C96.8103 235.378 96.9225 235.406 97.0364 235.406C97.1502 235.406 97.2624 235.378 97.3634 235.324L101.66 232.792C101.843 232.683 101.843 232.512 101.66 232.411L97.1352 229.739C97.0308 229.698 96.9187 229.681 96.8069 229.689C96.6952 229.697 96.5865 229.73 96.4888 229.786L96.4736 229.739ZM127.851 211.299L123.554 213.87C123.372 213.979 123.364 214.15 123.554 214.251L128.079 216.923C128.18 216.977 128.292 217.005 128.406 217.005C128.52 217.005 128.632 216.977 128.733 216.923L133.022 214.391C133.204 214.282 133.212 214.111 133.022 214.002L128.459 211.338C128.367 211.286 128.264 211.255 128.159 211.248C128.054 211.242 127.949 211.259 127.851 211.299ZM115.311 218.694L111.021 221.226C110.839 221.335 110.831 221.506 111.021 221.614L115.584 224.279C115.685 224.332 115.797 224.361 115.911 224.361C116.025 224.361 116.137 224.332 116.238 224.279L120.527 221.746C120.71 221.638 120.717 221.467 120.527 221.358L116.003 218.694C115.896 218.632 115.775 218.599 115.653 218.599C115.53 218.599 115.41 218.632 115.303 218.694H115.311ZM109.029 222.414L104.74 224.947C104.557 225.055 104.557 225.226 104.74 225.335L109.303 227.999C109.404 228.053 109.516 228.081 109.63 228.081C109.744 228.081 109.856 228.053 109.957 227.999L114.246 225.467C114.428 225.358 114.428 225.187 114.246 225.087L109.683 222.414C109.582 222.361 109.47 222.333 109.356 222.333C109.242 222.333 109.13 222.361 109.029 222.414ZM102.755 226.089L98.4737 228.628C98.2911 228.737 98.2835 228.908 98.4737 229.017L102.998 231.681C103.099 231.735 103.212 231.763 103.325 231.763C103.439 231.763 103.552 231.735 103.652 231.681L107.942 229.149C108.124 229.04 108.132 228.869 107.942 228.768L103.417 226.096C103.314 226.044 103.201 226.016 103.087 226.015C102.972 226.014 102.859 226.039 102.755 226.089ZM133.075 229.568L137.364 227.044C137.547 226.935 137.554 226.764 137.364 226.656L132.855 223.968C132.752 223.918 132.641 223.893 132.528 223.893C132.414 223.893 132.303 223.918 132.201 223.968L127.912 226.492C127.729 226.601 127.721 226.772 127.912 226.881L132.474 229.553C132.569 229.598 132.672 229.623 132.777 229.625C132.882 229.628 132.986 229.609 133.083 229.568H133.075ZM189.882 174.714L185.593 177.239C185.411 177.348 185.403 177.519 185.593 177.627L190.118 180.299C190.22 180.349 190.332 180.375 190.445 180.375C190.558 180.375 190.67 180.349 190.772 180.299L195.061 177.767C195.244 177.666 195.251 177.487 195.061 177.386L190.536 174.714C190.437 174.662 190.326 174.635 190.213 174.635C190.101 174.635 189.99 174.662 189.89 174.714H189.882ZM182.278 179.189L178.042 181.721C178.003 181.735 177.97 181.76 177.947 181.795C177.923 181.829 177.91 181.869 177.91 181.911C177.91 181.953 177.923 181.993 177.947 182.027C177.97 182.062 178.003 182.087 178.042 182.101L182.567 184.773C182.669 184.823 182.781 184.849 182.894 184.849C183.007 184.849 183.119 184.823 183.221 184.773L187.51 182.249C187.692 182.14 187.692 181.969 187.51 181.861L182.947 179.189C182.846 179.14 182.735 179.115 182.624 179.115C182.512 179.115 182.402 179.14 182.301 179.189H182.278ZM196.134 171.009L191.845 173.542C191.662 173.65 191.662 173.821 191.845 173.93L196.407 176.602C196.509 176.652 196.621 176.677 196.734 176.677C196.847 176.677 196.959 176.652 197.061 176.602L201.35 174.07C201.533 173.961 201.533 173.79 201.35 173.689L196.788 171.017C196.689 170.97 196.582 170.945 196.473 170.943C196.364 170.942 196.256 170.964 196.156 171.009H196.134ZM162.589 204.549L166.878 202.017C166.917 202.003 166.95 201.977 166.974 201.943C166.997 201.909 167.01 201.869 167.01 201.827C167.01 201.785 166.997 201.744 166.974 201.71C166.95 201.676 166.917 201.65 166.878 201.637L162.315 198.964C162.213 198.915 162.101 198.889 161.988 198.889C161.875 198.889 161.763 198.915 161.661 198.964L157.365 201.497C157.323 201.509 157.287 201.534 157.261 201.569C157.235 201.604 157.221 201.647 157.221 201.691C157.221 201.735 157.235 201.777 157.261 201.812C157.287 201.848 157.323 201.873 157.365 201.885L161.889 204.557C161.998 204.613 162.118 204.642 162.24 204.64C162.362 204.639 162.482 204.608 162.589 204.549ZM203.084 167.32C202.982 167.27 202.87 167.244 202.757 167.244C202.644 167.244 202.532 167.27 202.43 167.32L198.141 169.852C197.959 169.961 197.951 170.132 198.141 170.24L202.666 172.912C202.768 172.962 202.88 172.988 202.993 172.988C203.106 172.988 203.218 172.962 203.32 172.912L207.609 170.38C207.792 170.271 207.799 170.101 207.609 170L203.084 167.32ZM139.357 225.879L143.646 223.354C143.828 223.246 143.828 223.067 143.646 222.966L139.083 220.294C138.981 220.244 138.869 220.218 138.756 220.218C138.643 220.218 138.531 220.244 138.429 220.294L134.14 222.818C133.957 222.927 133.957 223.098 134.14 223.207L138.703 225.879C138.805 225.927 138.917 225.952 139.031 225.95C139.144 225.949 139.255 225.922 139.357 225.871V225.879ZM216.248 180.532L220.545 178C220.583 177.986 220.617 177.96 220.64 177.926C220.664 177.892 220.676 177.852 220.676 177.81C220.676 177.768 220.664 177.727 220.64 177.693C220.617 177.659 220.583 177.633 220.545 177.619L215.982 174.947C215.88 174.898 215.768 174.872 215.655 174.872C215.542 174.872 215.43 174.898 215.328 174.947L211.039 177.472C210.856 177.581 210.856 177.752 211.039 177.86L215.602 180.532C215.702 180.583 215.813 180.609 215.926 180.607C216.038 180.606 216.148 180.578 216.248 180.525V180.532ZM203.51 180.416L207.807 177.884C207.845 177.87 207.879 177.844 207.902 177.81C207.926 177.776 207.938 177.735 207.938 177.693C207.938 177.652 207.926 177.611 207.902 177.577C207.879 177.543 207.845 177.517 207.807 177.503L203.282 174.831C203.18 174.781 203.068 174.755 202.955 174.755C202.842 174.755 202.73 174.781 202.628 174.831L198.339 177.363C198.156 177.472 198.149 177.643 198.339 177.752L202.864 180.424C202.966 180.47 203.077 180.492 203.189 180.489C203.3 180.487 203.41 180.459 203.51 180.408V180.416ZM209.548 171.149C209.448 171.097 209.337 171.07 209.225 171.07C209.113 171.07 209.002 171.097 208.902 171.149L204.605 173.681C204.564 173.693 204.528 173.719 204.502 173.754C204.476 173.789 204.462 173.832 204.462 173.876C204.462 173.919 204.476 173.962 204.502 173.997C204.528 174.032 204.564 174.058 204.605 174.07L209.13 176.742C209.232 176.791 209.344 176.817 209.457 176.817C209.57 176.817 209.682 176.791 209.784 176.742L214.073 174.21C214.112 174.196 214.145 174.17 214.168 174.136C214.192 174.102 214.205 174.061 214.205 174.019C214.205 173.978 214.192 173.937 214.168 173.903C214.145 173.869 214.112 173.843 214.073 173.829L209.548 171.149ZM210.872 170.372L221.868 176.858C221.97 176.908 222.082 176.934 222.195 176.934C222.308 176.934 222.42 176.908 222.522 176.858L226.811 174.326C226.994 174.225 227.001 174.046 226.811 173.945L215.815 167.46C215.712 167.41 215.601 167.384 215.488 167.384C215.374 167.384 215.263 167.41 215.161 167.46L210.872 169.992C210.697 170.07 210.697 170.24 210.872 170.372ZM196.354 178.528L192.065 181.053C191.883 181.161 191.883 181.332 192.065 181.441L196.628 184.113C196.73 184.163 196.842 184.189 196.955 184.189C197.068 184.189 197.18 184.163 197.282 184.113L201.571 181.589C201.753 181.48 201.753 181.301 201.571 181.2L197.008 178.528C196.906 178.479 196.794 178.453 196.681 178.453C196.568 178.453 196.456 178.479 196.354 178.528ZM149.144 206.359L144.855 208.884C144.672 208.992 144.672 209.163 144.855 209.272L149.418 211.944C149.52 211.994 149.632 212.019 149.745 212.019C149.858 212.019 149.97 211.994 150.072 211.944L154.361 209.419C154.543 209.311 154.543 209.132 154.361 209.031L149.798 206.359C149.696 206.309 149.584 206.284 149.471 206.284C149.358 206.284 149.246 206.309 149.144 206.359ZM209.313 184.23C209.415 184.279 209.526 184.305 209.64 184.305C209.753 184.305 209.864 184.279 209.967 184.23L214.256 181.705C214.438 181.596 214.438 181.418 214.256 181.317L209.731 178.645C209.629 178.595 209.517 178.569 209.404 178.569C209.291 178.569 209.179 178.595 209.077 178.645L204.78 181.169C204.739 181.181 204.702 181.207 204.677 181.242C204.651 181.277 204.637 181.32 204.637 181.363C204.637 181.407 204.651 181.45 204.677 181.485C204.702 181.52 204.739 181.546 204.78 181.558L209.313 184.23ZM155.418 202.662L151.129 205.186C150.946 205.295 150.946 205.466 151.129 205.575L155.654 208.247C155.756 208.296 155.867 208.322 155.981 208.322C156.094 208.322 156.205 208.296 156.308 208.247L160.604 205.714C160.643 205.7 160.676 205.675 160.7 205.641C160.723 205.607 160.736 205.566 160.736 205.524C160.736 205.482 160.723 205.442 160.7 205.408C160.676 205.374 160.643 205.348 160.604 205.334L156.041 202.662C155.946 202.616 155.843 202.592 155.737 202.592C155.632 202.592 155.528 202.616 155.433 202.662H155.418ZM107.318 244.365C107.42 244.415 107.532 244.441 107.645 244.441C107.758 244.441 107.87 244.415 107.972 244.365L112.261 241.833C112.444 241.724 112.444 241.554 112.261 241.445L107.698 238.773C107.598 238.721 107.487 238.694 107.375 238.694C107.263 238.694 107.152 238.721 107.052 238.773L102.755 241.305C102.573 241.414 102.573 241.585 102.755 241.686L107.318 244.365ZM98.9528 235.938L94.6637 238.47C94.4812 238.579 94.4736 238.749 94.6637 238.85L99.2265 241.522C99.3275 241.576 99.4397 241.604 99.5535 241.604C99.6674 241.604 99.7796 241.576 99.8805 241.522L104.17 238.99C104.352 238.882 104.36 238.711 104.17 238.602L99.6068 235.938C99.5117 235.891 99.4078 235.867 99.3026 235.867C99.1973 235.867 99.0934 235.891 98.9984 235.938H98.9528ZM114.223 240.66L118.52 238.136C118.561 238.124 118.597 238.098 118.623 238.063C118.649 238.028 118.663 237.986 118.663 237.942C118.663 237.898 118.649 237.855 118.623 237.82C118.597 237.785 118.561 237.76 118.52 237.747L113.995 235.075C113.893 235.026 113.781 235 113.668 235C113.555 235 113.443 235.026 113.341 235.075L109.052 237.608C109.013 237.622 108.98 237.647 108.956 237.681C108.933 237.716 108.92 237.756 108.92 237.798C108.92 237.84 108.933 237.88 108.956 237.914C108.98 237.949 109.013 237.974 109.052 237.988L113.577 240.66C113.682 240.721 113.801 240.753 113.923 240.753C114.044 240.753 114.163 240.721 114.269 240.66H114.223ZM120.497 236.963L124.786 234.439C124.969 234.33 124.976 234.159 124.786 234.05L120.261 231.378C120.159 231.328 120.047 231.303 119.934 231.303C119.821 231.303 119.709 231.328 119.607 231.378L115.311 233.91C115.272 233.924 115.239 233.95 115.215 233.984C115.192 234.018 115.179 234.059 115.179 234.101C115.179 234.142 115.192 234.183 115.215 234.217C115.239 234.251 115.272 234.277 115.311 234.291L119.835 236.963C119.943 237.026 120.065 237.06 120.189 237.06C120.313 237.06 120.435 237.026 120.543 236.963H120.497ZM126.771 233.266L131.06 230.741C131.242 230.632 131.242 230.462 131.06 230.353L126.497 227.681C126.395 227.631 126.283 227.605 126.17 227.605C126.057 227.605 125.945 227.631 125.843 227.681L121.638 230.182C121.455 230.291 121.455 230.469 121.638 230.57L126.2 233.242C126.294 233.294 126.398 233.324 126.504 233.332C126.61 233.34 126.716 233.326 126.816 233.289L126.771 233.266ZM105.219 232.24L100.93 234.773C100.747 234.881 100.747 235.052 100.93 235.153L105.493 237.825C105.594 237.879 105.706 237.907 105.82 237.907C105.934 237.907 106.046 237.879 106.147 237.825L110.436 235.293C110.618 235.184 110.618 235.013 110.436 234.905L105.873 232.24C105.778 232.194 105.674 232.17 105.569 232.17C105.464 232.17 105.36 232.194 105.265 232.24H105.219ZM111.493 228.543L107.204 231.075C107.021 231.184 107.014 231.355 107.204 231.456L111.729 234.128C111.831 234.178 111.943 234.203 112.056 234.203C112.169 234.203 112.281 234.178 112.383 234.128L116.679 231.596C116.854 231.487 116.862 231.316 116.679 231.207L112.117 228.543C112.026 228.501 111.927 228.48 111.828 228.48C111.728 228.48 111.629 228.501 111.539 228.543H111.493ZM136.589 213.785L132.299 216.309C132.117 216.418 132.117 216.597 132.299 216.698L136.862 219.37C136.964 219.419 137.076 219.445 137.189 219.445C137.302 219.445 137.414 219.419 137.516 219.37L141.805 216.845C141.988 216.736 141.988 216.566 141.805 216.457L137.243 213.785C137.147 213.735 137.042 213.706 136.934 213.701C136.827 213.696 136.719 213.714 136.619 213.754L136.589 213.785ZM130.322 217.482L126.033 220.014C125.851 220.115 125.843 220.294 126.033 220.395L130.596 223.067C130.697 223.121 130.809 223.149 130.923 223.149C131.037 223.149 131.149 223.121 131.25 223.067L135.539 220.543C135.722 220.434 135.729 220.263 135.539 220.154L131.014 217.482C130.913 217.426 130.802 217.395 130.687 217.389C130.572 217.384 130.458 217.405 130.353 217.451L130.322 217.482ZM142.862 210.088L138.573 212.612C138.391 212.721 138.383 212.892 138.573 213L143.136 215.672C143.238 215.722 143.35 215.748 143.463 215.748C143.576 215.748 143.688 215.722 143.79 215.672L148.079 213.148C148.262 213.039 148.269 212.868 148.079 212.76L143.516 210.088C143.421 210.038 143.315 210.009 143.208 210.004C143.1 209.998 142.993 210.016 142.893 210.056L142.862 210.088ZM117.767 224.846L113.47 227.378C113.288 227.487 113.288 227.658 113.47 227.759L117.995 230.431C118.097 230.48 118.209 230.506 118.322 230.506C118.435 230.506 118.547 230.48 118.649 230.431L122.938 227.898C123.121 227.79 123.121 227.619 122.938 227.51L118.375 224.838C118.194 224.767 117.992 224.77 117.812 224.846H117.767ZM124.033 221.148L119.744 223.681C119.706 223.695 119.672 223.72 119.649 223.754C119.625 223.788 119.613 223.829 119.613 223.871C119.613 223.913 119.625 223.953 119.649 223.987C119.672 224.021 119.706 224.047 119.744 224.061L124.307 226.733C124.407 226.785 124.518 226.812 124.63 226.812C124.742 226.812 124.853 226.785 124.953 226.733L129.25 224.201C129.433 224.092 129.433 223.921 129.25 223.813L124.687 221.141C124.586 221.095 124.477 221.071 124.367 221.073C124.257 221.074 124.148 221.1 124.048 221.148H124.033ZM117.721 246.23L122.018 243.697C122.056 243.683 122.09 243.658 122.113 243.624C122.137 243.589 122.149 243.549 122.149 243.507C122.149 243.465 122.137 243.425 122.113 243.391C122.09 243.356 122.056 243.331 122.018 243.317L117.493 240.645C117.392 240.591 117.28 240.563 117.166 240.563C117.052 240.563 116.94 240.591 116.839 240.645L112.55 243.169C112.367 243.278 112.367 243.449 112.55 243.558L117.075 246.23C117.182 246.285 117.301 246.315 117.421 246.315C117.541 246.315 117.66 246.285 117.767 246.23H117.721ZM82.8155 243.55L78.2527 240.878C78.1505 240.828 78.0388 240.802 77.9257 240.802C77.8125 240.802 77.7008 240.828 77.5987 240.878L73.3857 243.387C73.2031 243.495 73.2031 243.666 73.3857 243.775L77.9485 246.447C78.0506 246.497 78.1624 246.523 78.2755 246.523C78.3886 246.523 78.5004 246.497 78.6025 246.447L82.8916 243.915C82.9243 243.896 82.951 243.867 82.9685 243.833C82.986 243.799 82.9936 243.761 82.9904 243.722C82.9872 243.684 82.9734 243.647 82.9505 243.617C82.9276 243.586 82.8966 243.563 82.8611 243.55H82.8155ZM91.5914 246.004L87.0666 243.332C86.9656 243.279 86.8534 243.25 86.7396 243.25C86.6257 243.25 86.5135 243.279 86.4126 243.332L79.8117 247.216C79.6291 247.325 79.6215 247.496 79.8117 247.604L84.3745 250.276C84.4766 250.326 84.5883 250.352 84.7015 250.352C84.8146 250.352 84.9263 250.326 85.0285 250.276L91.6294 246.393C91.8119 246.276 91.8195 246.105 91.637 246.004H91.5914ZM75.9561 238.338L71.3932 235.666C71.2911 235.616 71.1794 235.59 71.0662 235.59C70.9531 235.59 70.8414 235.616 70.7392 235.666L65.4615 238.773C65.279 238.882 65.2714 239.052 65.4615 239.161L70.0244 241.833C70.1265 241.883 70.2382 241.909 70.3514 241.909C70.4645 241.909 70.5762 241.883 70.6784 241.833L76.0017 238.726C76.1766 238.61 76.1766 238.439 76.0017 238.338H75.9561ZM80.0018 235.945C80.1027 235.999 80.2149 236.027 80.3288 236.027C80.4426 236.027 80.5548 235.999 80.6558 235.945L84.9448 233.413C85.1274 233.304 85.1274 233.134 84.9448 233.025L80.382 230.361C80.2824 230.307 80.1715 230.279 80.0588 230.279C79.9462 230.279 79.8352 230.307 79.7356 230.361L75.4389 232.893C75.2564 233.002 75.2564 233.172 75.4389 233.273L80.0018 235.945ZM99.7589 248.824L95.196 246.16C95.0951 246.106 94.9829 246.078 94.869 246.078C94.7552 246.078 94.643 246.106 94.542 246.16L86.2909 251.022C86.1084 251.131 86.1084 251.309 86.2909 251.41L90.8537 254.082C90.9559 254.132 91.0676 254.158 91.1807 254.158C91.2939 254.158 91.4056 254.132 91.5077 254.082L99.7589 249.22C99.9338 249.119 99.9338 248.948 99.7589 248.824ZM103.257 254.393L98.6942 251.721C98.592 251.671 98.4803 251.646 98.3672 251.646C98.254 251.646 98.1423 251.671 98.0402 251.721L92.7625 254.828C92.724 254.842 92.6907 254.868 92.6672 254.902C92.6436 254.936 92.631 254.977 92.631 255.018C92.631 255.06 92.6436 255.101 92.6672 255.135C92.6907 255.169 92.724 255.195 92.7625 255.209L97.3253 257.881C97.4263 257.935 97.5385 257.963 97.6523 257.963C97.7662 257.963 97.8784 257.935 97.9793 257.881L103.257 254.774C103.432 254.688 103.432 254.517 103.257 254.409V254.393ZM126.672 208.433C126.774 208.483 126.886 208.509 126.999 208.509C127.112 208.509 127.224 208.483 127.326 208.433L131.615 205.901C131.654 205.887 131.687 205.861 131.71 205.827C131.734 205.793 131.747 205.752 131.747 205.711C131.747 205.669 131.734 205.628 131.71 205.594C131.687 205.56 131.654 205.534 131.615 205.52L127.052 202.848C126.95 202.799 126.838 202.773 126.725 202.773C126.612 202.773 126.5 202.799 126.398 202.848L122.109 205.373C121.927 205.481 121.927 205.652 122.109 205.761L126.672 208.433ZM114.162 215.851C114.262 215.903 114.373 215.93 114.485 215.93C114.598 215.93 114.708 215.903 114.809 215.851L119.105 213.327C119.147 213.314 119.183 213.289 119.209 213.254C119.235 213.219 119.249 213.176 119.249 213.132C119.249 213.088 119.235 213.046 119.209 213.011C119.183 212.976 119.147 212.95 119.105 212.938L114.542 210.266C114.44 210.216 114.329 210.191 114.215 210.191C114.102 210.191 113.991 210.216 113.888 210.266L109.599 212.791C109.417 212.899 109.417 213.07 109.599 213.179L114.162 215.851ZM86.3441 232.248C86.4451 232.302 86.5573 232.33 86.6711 232.33C86.785 232.33 86.8972 232.302 86.9981 232.248L91.2948 229.716C91.3361 229.704 91.3725 229.678 91.3983 229.643C91.4242 229.608 91.4382 229.566 91.4382 229.522C91.4382 229.478 91.4242 229.435 91.3983 229.4C91.3725 229.365 91.3361 229.34 91.2948 229.328L86.77 226.663C86.669 226.61 86.5568 226.581 86.443 226.581C86.3291 226.581 86.2169 226.61 86.116 226.663L81.8269 229.195C81.6444 229.304 81.6444 229.475 81.8269 229.576L86.3441 232.248ZM120.429 212.154C120.531 212.203 120.642 212.229 120.756 212.229C120.869 212.229 120.98 212.203 121.083 212.154L125.372 209.629C125.554 209.52 125.562 209.342 125.372 209.241L120.809 206.569C120.707 206.519 120.595 206.493 120.482 206.493C120.369 206.493 120.257 206.519 120.155 206.569L115.866 209.093C115.683 209.202 115.676 209.373 115.866 209.482L120.429 212.154ZM107.888 219.548C107.99 219.598 108.102 219.624 108.215 219.624C108.328 219.624 108.44 219.598 108.542 219.548L112.831 217.024C113.014 216.915 113.014 216.744 112.831 216.635L108.307 213.963C108.204 213.914 108.093 213.888 107.98 213.888C107.866 213.888 107.755 213.914 107.653 213.963L103.356 216.496C103.317 216.51 103.284 216.535 103.261 216.569C103.237 216.604 103.224 216.644 103.224 216.686C103.224 216.728 103.237 216.768 103.261 216.802C103.284 216.837 103.317 216.862 103.356 216.876L107.888 219.548ZM106.557 254.774C106.455 254.724 106.344 254.698 106.23 254.698C106.117 254.698 106.006 254.724 105.903 254.774L99.3026 258.658C99.1201 258.766 99.1125 258.937 99.3026 259.038L103.827 261.71C103.93 261.76 104.041 261.786 104.154 261.786C104.268 261.786 104.379 261.76 104.481 261.71L111.082 257.826C111.121 257.812 111.154 257.787 111.178 257.753C111.201 257.718 111.214 257.678 111.214 257.636C111.214 257.594 111.201 257.554 111.178 257.52C111.154 257.486 111.121 257.46 111.082 257.446L106.557 254.774ZM98.8995 224.853C99.0017 224.903 99.1134 224.929 99.2265 224.929C99.3397 224.929 99.4514 224.903 99.5535 224.853L103.843 222.321C104.025 222.213 104.025 222.042 103.843 221.933L99.2798 219.261C99.1776 219.211 99.0659 219.185 98.9528 219.185C98.8396 219.185 98.7279 219.211 98.6258 219.261L94.3367 221.793C94.1542 221.902 94.1542 222.073 94.3367 222.174L98.8995 224.853ZM92.6256 228.551C92.7266 228.605 92.8388 228.633 92.9526 228.633C93.0665 228.633 93.1787 228.605 93.2796 228.551L97.5687 226.019C97.7512 225.91 97.7588 225.739 97.5687 225.63L93.0439 222.966C92.9429 222.912 92.8307 222.884 92.7169 222.884C92.603 222.884 92.4908 222.912 92.3899 222.966L88.0628 225.521C87.8879 225.63 87.8803 225.801 88.0628 225.902L92.6256 228.551ZM222.727 186.265C222.625 186.215 222.513 186.189 222.4 186.189C222.287 186.189 222.175 186.215 222.073 186.265L211.51 192.479C211.472 192.493 211.439 192.518 211.415 192.552C211.391 192.587 211.379 192.627 211.379 192.669C211.379 192.711 211.391 192.751 211.415 192.785C211.439 192.82 211.472 192.845 211.51 192.859L216.073 195.531C216.174 195.585 216.286 195.613 216.4 195.613C216.514 195.613 216.626 195.585 216.727 195.531L227.283 189.317C227.465 189.209 227.473 189.038 227.283 188.929L222.727 186.265ZM208.826 194.452C208.725 194.398 208.613 194.37 208.499 194.37C208.385 194.37 208.273 194.398 208.172 194.452L203.898 196.976C203.715 197.085 203.715 197.256 203.898 197.364L208.423 200.029C208.524 200.082 208.636 200.11 208.75 200.11C208.864 200.11 208.976 200.082 209.077 200.029L213.373 197.496C213.415 197.484 213.451 197.459 213.477 197.424C213.503 197.389 213.517 197.346 213.517 197.302C213.517 197.258 213.503 197.216 213.477 197.181C213.451 197.146 213.415 197.12 213.373 197.108L208.826 194.452ZM124.048 242.532L128.337 240C128.52 239.891 128.528 239.72 128.337 239.619L123.813 236.947C123.71 236.898 123.599 236.872 123.486 236.872C123.372 236.872 123.261 236.898 123.159 236.947L118.862 239.503C118.687 239.612 118.679 239.783 118.862 239.891L123.387 242.563C123.492 242.609 123.606 242.631 123.721 242.625C123.836 242.62 123.948 242.588 124.048 242.532ZM196.293 201.838C196.191 201.789 196.079 201.763 195.966 201.763C195.853 201.763 195.741 201.789 195.639 201.838L191.35 204.371C191.168 204.479 191.16 204.65 191.35 204.759L195.875 207.423C195.976 207.477 196.088 207.505 196.202 207.505C196.316 207.505 196.428 207.477 196.529 207.423L200.818 204.891C201.001 204.782 201.008 204.611 200.818 204.51L196.293 201.838ZM228.994 182.567C228.891 182.518 228.78 182.492 228.667 182.492C228.553 182.492 228.442 182.518 228.34 182.567L224.013 185.131C223.974 185.145 223.941 185.17 223.917 185.204C223.894 185.239 223.881 185.279 223.881 185.321C223.881 185.363 223.894 185.403 223.917 185.437C223.941 185.471 223.974 185.497 224.013 185.511L228.575 188.183C228.678 188.233 228.789 188.259 228.902 188.259C229.016 188.259 229.127 188.233 229.229 188.183L233.518 185.659C233.701 185.55 233.701 185.379 233.518 185.27L228.994 182.567ZM239.792 181.542L228.758 175.033C228.656 174.983 228.544 174.957 228.431 174.957C228.318 174.957 228.206 174.983 228.104 175.033L223.815 177.557C223.632 177.666 223.632 177.837 223.815 177.946L234.811 184.432C234.913 184.481 235.025 184.507 235.138 184.507C235.251 184.507 235.363 184.481 235.465 184.432L239.754 181.907C239.929 181.822 239.937 181.651 239.754 181.542H239.792ZM172.871 215.657C172.77 215.603 172.658 215.575 172.544 215.575C172.43 215.575 172.318 215.603 172.217 215.657L166.931 218.764C166.749 218.873 166.749 219.043 166.931 219.152L171.494 221.824C171.596 221.874 171.708 221.9 171.821 221.9C171.934 221.9 172.046 221.874 172.148 221.824L177.426 218.717C177.608 218.608 177.616 218.438 177.426 218.337L172.871 215.657ZM188.711 206.336C188.609 206.286 188.498 206.26 188.384 206.26C188.271 206.26 188.16 206.286 188.057 206.336L181.456 210.22C181.274 210.328 181.266 210.499 181.456 210.6L186.019 213.272C186.121 213.322 186.233 213.348 186.346 213.348C186.459 213.348 186.571 213.322 186.673 213.272L193.274 209.388C193.457 209.287 193.464 209.109 193.274 209.008L188.711 206.336ZM158.346 224.24C158.244 224.19 158.132 224.164 158.019 224.164C157.906 224.164 157.794 224.19 157.692 224.24L122.383 245.064C122.2 245.173 122.193 245.344 122.383 245.445L126.908 248.117C127.009 248.171 127.121 248.199 127.235 248.199C127.349 248.199 127.461 248.171 127.562 248.117L162.832 227.277C162.874 227.265 162.91 227.239 162.936 227.204C162.962 227.169 162.976 227.127 162.976 227.083C162.976 227.039 162.962 226.996 162.936 226.961C162.91 226.926 162.874 226.901 162.832 226.889L158.346 224.24ZM121.083 246.237C120.982 246.184 120.869 246.155 120.756 246.155C120.642 246.155 120.529 246.184 120.429 246.237L115.151 249.344C114.968 249.453 114.961 249.624 115.151 249.733L119.714 252.397C119.815 252.451 119.927 252.479 120.041 252.479C120.155 252.479 120.267 252.451 120.368 252.397L125.691 249.29C125.732 249.278 125.769 249.252 125.795 249.217C125.82 249.182 125.834 249.14 125.834 249.096C125.834 249.052 125.82 249.009 125.795 248.974C125.769 248.939 125.732 248.914 125.691 248.902L121.083 246.237ZM165.639 219.96C165.538 219.906 165.425 219.878 165.312 219.878C165.198 219.878 165.086 219.906 164.985 219.96L159.707 223.067C159.524 223.176 159.517 223.347 159.707 223.455L164.27 226.127C164.372 226.177 164.484 226.203 164.597 226.203C164.71 226.203 164.822 226.177 164.924 226.127L170.201 223.02C170.384 222.919 170.392 222.741 170.201 222.64L165.639 219.96ZM113.82 250.517C113.718 250.467 113.606 250.442 113.493 250.442C113.38 250.442 113.268 250.467 113.166 250.517L107.888 253.624C107.706 253.733 107.706 253.904 107.888 254.013L112.451 256.685C112.551 256.736 112.662 256.763 112.774 256.763C112.887 256.763 112.997 256.736 113.098 256.685L118.383 253.578C118.565 253.469 118.565 253.298 118.383 253.197L113.82 250.517ZM180.156 211.4C180.055 211.346 179.943 211.318 179.829 211.318C179.715 211.318 179.603 211.346 179.502 211.4L174.224 214.507C174.042 214.616 174.042 214.787 174.224 214.896L178.787 217.56C178.888 217.614 179 217.642 179.114 217.642C179.228 217.642 179.34 217.614 179.441 217.56L184.719 214.453C184.901 214.344 184.901 214.173 184.719 214.064L180.156 211.4ZM202.598 198.196C202.497 198.142 202.384 198.114 202.271 198.114C202.157 198.114 202.045 198.142 201.944 198.196L197.609 200.666C197.426 200.774 197.426 200.945 197.609 201.054L202.172 203.718C202.273 203.772 202.385 203.8 202.499 203.8C202.613 203.8 202.725 203.772 202.826 203.718L207.115 201.186C207.297 201.077 207.297 200.906 207.115 200.805L202.598 198.196ZM216.491 188.098L220.788 185.573C220.971 185.465 220.971 185.294 220.788 185.185L216.225 182.513C216.123 182.463 216.011 182.438 215.898 182.438C215.785 182.438 215.673 182.463 215.571 182.513L211.282 185.037C211.1 185.146 211.1 185.325 211.282 185.426L215.845 188.098C215.944 188.133 216.048 188.145 216.152 188.135C216.256 188.124 216.356 188.09 216.446 188.036L216.491 188.098ZM189.7 188.642L193.989 186.117C194.172 186.008 194.172 185.837 193.989 185.729L189.426 183.057C189.324 183.007 189.212 182.981 189.099 182.981C188.986 182.981 188.874 183.007 188.772 183.057L184.483 185.589C184.301 185.698 184.301 185.869 184.483 185.97L189.046 188.642C189.145 188.678 189.252 188.692 189.357 188.681C189.462 188.67 189.564 188.636 189.654 188.579L189.7 188.642ZM174.24 212.954L186.78 205.551C186.818 205.537 186.852 205.512 186.875 205.477C186.899 205.443 186.911 205.403 186.911 205.361C186.911 205.319 186.899 205.279 186.875 205.245C186.852 205.21 186.818 205.185 186.78 205.171L182.217 202.499C182.116 202.445 182.004 202.417 181.89 202.417C181.776 202.417 181.664 202.445 181.563 202.499L169.023 209.893C168.984 209.907 168.951 209.933 168.927 209.967C168.904 210.001 168.891 210.042 168.891 210.084C168.891 210.125 168.904 210.166 168.927 210.2C168.951 210.234 168.984 210.26 169.023 210.274L173.586 212.946C173.687 212.997 173.799 213.024 173.912 213.025C174.025 213.027 174.137 213.002 174.24 212.954ZM209.556 191.741C209.658 191.79 209.77 191.816 209.883 191.816C209.996 191.816 210.108 191.79 210.21 191.741L214.499 189.216C214.682 189.108 214.682 188.937 214.499 188.828L209.936 186.156C209.834 186.106 209.722 186.08 209.609 186.08C209.496 186.08 209.384 186.106 209.282 186.156L204.985 188.688C204.947 188.702 204.914 188.728 204.89 188.762C204.867 188.796 204.854 188.837 204.854 188.878C204.854 188.92 204.867 188.961 204.89 188.995C204.914 189.029 204.947 189.055 204.985 189.069L209.556 191.741ZM203.738 187.919L208.035 185.395C208.21 185.286 208.217 185.115 208.035 185.006L203.51 182.334C203.408 182.285 203.296 182.259 203.183 182.259C203.07 182.259 202.958 182.285 202.856 182.334L198.575 184.867C198.392 184.975 198.385 185.146 198.575 185.255L203.1 187.927C203.196 187.968 203.3 187.989 203.404 187.988C203.509 187.987 203.612 187.963 203.708 187.919H203.738ZM167.996 216.659L172.285 214.127C172.468 214.018 172.468 213.847 172.285 213.738L167.722 211.066C167.62 211.017 167.508 210.991 167.395 210.991C167.282 210.991 167.17 211.017 167.068 211.066L162.772 213.598C162.589 213.707 162.589 213.878 162.772 213.979L167.296 216.651C167.397 216.698 167.506 216.723 167.616 216.723C167.726 216.723 167.835 216.698 167.935 216.651L167.996 216.659ZM195.662 199.889C195.763 199.943 195.875 199.971 195.989 199.971C196.103 199.971 196.215 199.943 196.316 199.889L200.605 197.357C200.788 197.248 200.795 197.077 200.605 196.968L196.08 194.304C195.979 194.25 195.867 194.222 195.753 194.222C195.639 194.222 195.527 194.25 195.426 194.304L191.137 196.836C190.955 196.945 190.947 197.116 191.137 197.225L195.662 199.889ZM136.581 235.114L140.87 232.582C141.053 232.473 141.06 232.302 140.87 232.202L136.345 229.529C136.244 229.476 136.132 229.448 136.018 229.448C135.904 229.448 135.792 229.476 135.691 229.529L131.402 232.062C131.22 232.17 131.212 232.341 131.402 232.45L135.965 235.114C136.059 235.165 136.164 235.194 136.27 235.198C136.377 235.202 136.483 235.181 136.581 235.138V235.114ZM142.855 231.417L147.144 228.885C147.326 228.776 147.326 228.605 147.144 228.504L142.581 225.832C142.48 225.778 142.368 225.75 142.254 225.75C142.14 225.75 142.028 225.778 141.927 225.832L137.638 228.364C137.455 228.473 137.455 228.644 137.638 228.753L142.201 231.417C142.3 231.474 142.411 231.506 142.525 231.511C142.639 231.515 142.752 231.49 142.855 231.44V231.417ZM130.315 238.812L134.604 236.279C134.786 236.171 134.786 236 134.604 235.899L130.041 233.227C129.939 233.177 129.827 233.151 129.714 233.151C129.601 233.151 129.489 233.177 129.387 233.227L125.098 235.759C124.915 235.868 124.915 236.039 125.098 236.147L129.661 238.819C129.762 238.872 129.873 238.9 129.986 238.903C130.099 238.905 130.211 238.882 130.315 238.835V238.812ZM155.41 224.053L159.699 221.521C159.882 221.412 159.882 221.242 159.699 221.133L155.136 218.469C155.037 218.415 154.926 218.387 154.813 218.387C154.701 218.387 154.59 218.415 154.49 218.469L150.193 221.001C150.011 221.11 150.011 221.28 150.193 221.381L154.756 224.053C154.856 224.103 154.966 224.129 155.077 224.127C155.188 224.126 155.297 224.098 155.395 224.046L155.41 224.053ZM149.144 227.743L153.433 225.211C153.616 225.102 153.623 224.931 153.433 224.822L148.87 222.158C148.769 222.104 148.657 222.076 148.543 222.076C148.429 222.076 148.317 222.104 148.216 222.158L143.927 224.69C143.745 224.799 143.737 224.97 143.927 225.079L148.49 227.743C148.591 227.797 148.703 227.825 148.817 227.825C148.931 227.825 149.043 227.797 149.144 227.743ZM161.684 220.348L165.981 217.816C166.022 217.804 166.058 217.779 166.084 217.744C166.11 217.709 166.124 217.666 166.124 217.622C166.124 217.578 166.11 217.535 166.084 217.5C166.058 217.465 166.022 217.44 165.981 217.428L161.418 214.764C161.317 214.71 161.205 214.682 161.091 214.682C160.977 214.682 160.865 214.71 160.764 214.764L156.475 217.296C156.292 217.404 156.292 217.575 156.475 217.676L161 220.348C161.102 220.403 161.215 220.432 161.331 220.432C161.446 220.432 161.559 220.403 161.661 220.348H161.684ZM193.145 167.265C193.246 167.319 193.358 167.347 193.472 167.347C193.586 167.347 193.698 167.319 193.799 167.265L198.096 164.733C198.278 164.624 198.278 164.454 198.096 164.353L196.894 163.638C196.792 163.588 196.68 163.563 196.567 163.563C196.454 163.563 196.342 163.588 196.24 163.638L191.951 166.17C191.768 166.279 191.768 166.45 191.951 166.559L193.145 167.265ZM162.14 187.539C162.241 187.59 162.351 187.617 162.464 187.617C162.576 187.617 162.687 187.59 162.787 187.539L167.084 185.006C167.266 184.898 167.266 184.727 167.084 184.618L162.521 181.946C162.419 181.896 162.307 181.87 162.194 181.87C162.081 181.87 161.969 181.896 161.867 181.946L157.578 184.478C157.539 184.492 157.506 184.518 157.482 184.552C157.459 184.586 157.446 184.627 157.446 184.668C157.446 184.71 157.459 184.751 157.482 184.785C157.506 184.819 157.539 184.845 157.578 184.859L162.14 187.539ZM174.681 180.144C174.783 180.194 174.894 180.219 175.008 180.219C175.121 180.219 175.232 180.194 175.335 180.144L179.624 177.619C179.806 177.511 179.806 177.34 179.624 177.231L175.061 174.559C174.959 174.509 174.847 174.484 174.734 174.484C174.621 174.484 174.509 174.509 174.407 174.559L170.118 177.091C170.079 177.105 170.046 177.131 170.022 177.165C169.999 177.199 169.986 177.24 169.986 177.282C169.986 177.323 169.999 177.364 170.022 177.398C170.046 177.432 170.079 177.458 170.118 177.472L174.681 180.144ZM154.467 192.051C154.568 192.105 154.68 192.133 154.794 192.133C154.908 192.133 155.02 192.105 155.121 192.051L159.41 189.519C159.593 189.41 159.593 189.24 159.41 189.131L154.848 186.467C154.747 186.413 154.634 186.385 154.521 186.385C154.407 186.385 154.294 186.413 154.193 186.467L149.958 189.014C149.775 189.123 149.775 189.294 149.958 189.403L154.467 192.051ZM168.392 183.841C168.492 183.895 168.605 183.923 168.719 183.923C168.832 183.923 168.945 183.895 169.046 183.841L173.335 181.317C173.517 181.208 173.525 181.037 173.335 180.928L168.772 178.256C168.67 178.207 168.558 178.181 168.445 178.181C168.332 178.181 168.22 178.207 168.118 178.256L163.829 180.789C163.646 180.89 163.639 181.068 163.829 181.169L168.392 183.841ZM141.927 199.446C142.027 199.5 142.138 199.528 142.25 199.528C142.363 199.528 142.474 199.5 142.573 199.446L146.87 196.914C147.053 196.805 147.053 196.634 146.87 196.533L142.307 193.861C142.206 193.807 142.094 193.779 141.98 193.779C141.866 193.779 141.754 193.807 141.653 193.861L137.364 196.393C137.182 196.502 137.182 196.673 137.364 196.782L141.927 199.446ZM148.193 195.749C148.294 195.803 148.407 195.831 148.52 195.831C148.634 195.831 148.746 195.803 148.847 195.749L153.136 193.217C153.319 193.108 153.327 192.937 153.136 192.836L148.612 190.164C148.511 190.11 148.398 190.082 148.285 190.082C148.171 190.082 148.059 190.11 147.958 190.164L143.669 192.696C143.486 192.805 143.478 192.976 143.669 193.085L148.193 195.749ZM180.59 174.683C180.69 174.737 180.803 174.765 180.917 174.765C181.03 174.765 181.143 174.737 181.244 174.683L185.54 172.151C185.715 172.042 185.723 171.872 185.54 171.771L184.339 171.056C184.236 171.006 184.125 170.98 184.012 170.98C183.899 170.98 183.787 171.006 183.685 171.056L179.396 173.58C179.213 173.689 179.205 173.86 179.396 173.969L180.59 174.683ZM199.404 163.591C199.505 163.645 199.617 163.673 199.731 163.673C199.844 163.673 199.957 163.645 200.058 163.591L204.347 161.059C204.529 160.95 204.537 160.78 204.347 160.671L203.138 159.964C203.035 159.914 202.924 159.889 202.811 159.889C202.697 159.889 202.586 159.914 202.484 159.964L198.187 162.496C198.146 162.508 198.109 162.534 198.083 162.569C198.057 162.604 198.043 162.647 198.043 162.69C198.043 162.734 198.057 162.777 198.083 162.812C198.109 162.847 198.146 162.873 198.187 162.885L199.404 163.591ZM208.917 169.2C209.018 169.253 209.13 169.281 209.244 169.281C209.358 169.281 209.47 169.253 209.571 169.2L213.86 166.667C214.043 166.559 214.043 166.388 213.86 166.287L209.297 163.615C209.198 163.561 209.087 163.533 208.974 163.533C208.861 163.533 208.751 163.561 208.651 163.615L204.354 166.147C204.172 166.256 204.172 166.427 204.354 166.535L208.917 169.2ZM222.72 184.354L227.009 181.829C227.191 181.721 227.199 181.55 227.009 181.441L222.484 178.769C222.382 178.719 222.27 178.694 222.157 178.694C222.044 178.694 221.932 178.719 221.83 178.769L217.587 181.286C217.404 181.394 217.396 181.565 217.587 181.674L222.111 184.346C222.207 184.39 222.31 184.414 222.415 184.415C222.519 184.416 222.623 184.395 222.72 184.354ZM186.879 171.002C186.98 171.055 187.092 171.083 187.206 171.083C187.319 171.083 187.432 171.055 187.533 171.002L191.822 168.469C192.004 168.361 192.004 168.19 191.822 168.089L190.613 167.374C190.512 167.32 190.399 167.292 190.286 167.292C190.172 167.292 190.06 167.32 189.959 167.374L185.647 169.891C185.464 170 185.464 170.17 185.647 170.279L186.879 171.002ZM135.668 203.159C135.769 203.213 135.882 203.241 135.995 203.241C136.109 203.241 136.221 203.213 136.322 203.159L140.611 200.627C140.794 200.518 140.794 200.347 140.611 200.246L136.094 197.559C135.992 197.509 135.88 197.483 135.767 197.483C135.654 197.483 135.542 197.509 135.44 197.559L131.144 200.091C130.969 200.2 130.961 200.37 131.144 200.479L135.668 203.159Z" fill="#455A64"/>
<path d="M158.635 240.8L197.282 218.01C197.935 217.673 198.657 217.497 199.388 217.497C200.12 217.497 200.842 217.673 201.495 218.01L223.67 231.075C224.834 231.767 224.834 232.877 223.67 233.569L185.031 256.351C184.377 256.692 183.654 256.869 182.92 256.869C182.187 256.869 181.463 256.692 180.81 256.351L158.65 243.286C157.509 242.61 157.509 241.484 158.635 240.8Z" fill="#263238"/>
<path d="M152.095 68.0282C140.018 79.1124 129.585 78.5299 123.06 73.3956C116.542 86.2274 106.109 99.1059 94.0324 102.267L87.135 121.298C87.135 121.298 90.8309 125.647 90.8309 136.056C90.7944 140.418 90.2195 144.758 89.1198 148.973C87.865 154.107 86.2452 159.42 86.2452 168.299C86.2452 174.311 87.0057 180.159 90.0019 185.48C91.8102 188.7 94.4141 191.378 97.5534 193.248L87.0665 187.034C83.7594 185.165 81.0124 182.413 79.1196 179.072C76.1385 173.744 75.3781 167.902 75.3781 161.883C75.3781 153.012 76.9979 147.691 78.2526 142.549C79.3462 138.336 79.9135 133.999 79.9409 129.64C79.9409 119.231 76.245 114.882 76.245 114.882L83.1349 95.8513C95.2112 92.69 105.645 79.8115 112.162 66.9796C118.687 72.1139 129.121 72.6965 141.197 61.6123L152.095 68.0282Z" fill="#4672A4"/>
<path opacity="0.8" d="M116.003 69.24L112.2 66.9796C113.365 67.9007 114.643 68.6607 116.003 69.24Z" fill="white"/>
<path opacity="0.85" d="M141.212 61.6279C131.273 70.7469 122.451 71.9664 116.003 69.2555L123.06 73.4111C129.585 78.5454 140.018 79.128 152.095 68.0438L141.212 61.6279Z" fill="white"/>
<path opacity="0.65" d="M112.177 66.9796C105.66 79.8115 95.2265 92.6899 83.1501 95.8513L94.0325 102.267C106.109 99.1059 116.543 86.2274 123.06 73.3955L112.177 66.9796Z" fill="white"/>
<path opacity="0.55" d="M83.1501 95.8513L76.2603 114.882L87.135 121.297L94.0325 102.267L83.1501 95.8513Z" fill="white"/>
<path opacity="0.4" d="M90.002 185.48C87.021 180.159 86.2453 174.311 86.2453 168.299C86.2453 159.42 87.8651 154.107 89.1199 148.973C90.2196 144.758 90.7945 140.418 90.8309 136.056C90.8309 125.647 87.135 121.298 87.135 121.298L76.2603 114.882C76.2603 114.882 79.9562 119.231 79.9562 129.64C79.9189 134 79.3414 138.338 78.2375 142.549C76.9827 147.691 75.3629 153.012 75.3629 161.883C75.3629 167.902 76.1234 173.744 79.1196 179.064C81.0124 182.405 83.7595 185.158 87.0666 187.026L97.5535 193.24C94.4151 191.373 91.8113 188.697 90.002 185.48Z" fill="white"/>
<path opacity="0.05" d="M90.002 185.48C87.021 180.159 86.2453 174.311 86.2453 168.299C86.2453 159.42 87.8651 154.107 89.1199 148.973C90.2196 144.758 90.7945 140.418 90.8309 136.056C90.8309 125.647 87.135 121.298 87.135 121.298L76.2603 114.882C76.2603 114.882 79.9562 119.231 79.9562 129.64C79.9189 134 79.3414 138.338 78.2375 142.549C76.9827 147.691 75.3629 153.012 75.3629 161.883C75.3629 167.902 76.1234 173.744 79.1196 179.064C81.0124 182.405 83.7595 185.158 87.0666 187.026L97.5535 193.24C94.4151 191.373 91.8113 188.697 90.002 185.48Z" fill="black"/>
<path d="M123.06 198.514C105.021 198.724 94.6865 193.854 89.9944 185.48C87.0209 180.159 86.2452 174.311 86.2452 168.291C86.2452 159.42 87.8575 154.115 89.1198 148.973C90.2195 144.761 90.7944 140.423 90.8309 136.064C90.8309 125.655 87.135 121.305 87.135 121.305L94.0325 102.267C106.109 99.1059 116.542 86.2197 123.06 73.3956C129.585 78.5299 140.018 79.1124 152.095 68.0283L158.992 78.9027C156.622 84.9893 155.367 91.4687 155.289 98.0185C155.225 101.719 155.807 105.401 157.007 108.893C158.262 112.544 159.882 115.954 159.882 124.824C159.862 132.197 158.591 139.511 156.125 146.441C151.425 160.391 141.106 177.441 123.06 198.514Z" fill="#4672A4"/>
<path opacity="0.75" d="M123.06 198.514C105.021 198.724 94.6865 193.854 89.9944 185.48C87.0209 180.159 86.2452 174.311 86.2452 168.291C86.2452 159.42 87.8575 154.115 89.1198 148.973C90.2195 144.761 90.7944 140.423 90.8309 136.064C90.8309 125.655 87.135 121.305 87.135 121.305L94.0325 102.267C106.109 99.1059 116.542 86.2197 123.06 73.3956C129.585 78.5299 140.018 79.1124 152.095 68.0283L158.992 78.9027C156.622 84.9893 155.367 91.4687 155.289 98.0185C155.225 101.719 155.807 105.401 157.007 108.893C158.262 112.544 159.882 115.954 159.882 124.824C159.862 132.197 158.591 139.511 156.125 146.441C151.425 160.391 141.106 177.441 123.06 198.514Z" fill="white"/>
<path d="M120.923 193.729C106.953 193.558 97.9186 189.985 94.0706 183.111C91.8956 179.227 90.9298 174.66 90.9298 168.291C90.9293 162.737 91.6973 157.212 93.2112 151.878C93.3557 151.288 93.5078 150.713 93.6447 150.13C94.8469 145.541 95.4704 140.814 95.5003 136.063C95.5003 128.475 93.7207 123.511 92.3063 120.762L97.6296 106.159C110.558 101.568 119.904 88.5266 124.855 79.9746C127.521 81.1326 130.391 81.7245 133.288 81.7145C139.129 81.7145 145.068 79.493 151 75.1044L153.775 79.5007C151.754 85.4704 150.686 91.7333 150.612 98.0495C150.544 102.297 151.214 106.523 152.589 110.532C152.733 110.951 152.886 111.371 153.038 111.79C154.148 114.897 155.197 117.825 155.197 124.871C155.172 131.712 153.988 138.497 151.699 144.926C147.083 158.612 136.733 175.033 120.923 193.729Z" fill="#4672A4"/>
<path opacity="0.4" d="M120.923 193.729C106.953 193.558 97.9186 189.985 94.0706 183.111C91.8956 179.227 90.9298 174.66 90.9298 168.291C90.9293 162.737 91.6973 157.212 93.2112 151.878C93.3557 151.288 93.5078 150.713 93.6447 150.13C94.8469 145.541 95.4704 140.814 95.5003 136.063C95.5003 128.475 93.7207 123.511 92.3063 120.762L97.6296 106.159C110.558 101.568 119.904 88.5266 124.855 79.9746C127.521 81.1326 130.391 81.7245 133.288 81.7145C139.129 81.7145 145.068 79.493 151 75.1044L153.775 79.5007C151.754 85.4704 150.686 91.7333 150.612 98.0495C150.544 102.297 151.214 106.523 152.589 110.532C152.733 110.951 152.886 111.371 153.038 111.79C154.148 114.897 155.197 117.825 155.197 124.871C155.172 131.712 153.988 138.497 151.699 144.926C147.083 158.612 136.733 175.033 120.923 193.729Z" fill="white"/>
<path opacity="0.15" d="M120.923 193.729C106.953 193.558 97.9186 189.985 94.0706 183.111C91.8956 179.227 90.9298 174.66 90.9298 168.291C90.9293 162.737 91.6973 157.212 93.2112 151.878C93.3557 151.288 93.5078 150.713 93.6447 150.13C94.8469 145.541 95.4704 140.814 95.5003 136.063C95.5003 128.475 93.7207 123.511 92.3063 120.762L97.6296 106.159C110.558 101.568 119.904 88.5266 124.855 79.9746C127.521 81.1326 130.391 81.7245 133.288 81.7145C139.129 81.7145 145.068 79.493 151 75.1044L153.775 79.5007C151.754 85.4704 150.686 91.7333 150.612 98.0495C150.544 102.297 151.214 106.523 152.589 110.532C152.733 110.951 152.886 111.371 153.038 111.79C154.148 114.897 155.197 117.825 155.197 124.871C155.172 131.712 153.988 138.497 151.699 144.926C147.083 158.612 136.733 175.033 120.923 193.729Z" fill="black"/>
<path opacity="0.8" d="M97.2721 187.065C102.033 191.352 109.942 193.597 120.923 193.729L113.919 189.651C108.268 189.73 102.644 188.856 97.2721 187.065Z" fill="white"/>
<path opacity="0.15" d="M150.117 77.3492L153.768 79.5007L150.992 75.1044L149.403 76.2229L150.117 77.3492Z" fill="black"/>
<path d="M148.931 108.38C147.556 104.371 146.886 100.145 146.954 95.8979C147.028 89.5817 148.096 83.3188 150.117 77.3492L149.402 76.2229C144.003 79.8658 138.604 81.7145 133.28 81.7145C130.383 81.7246 127.513 81.1326 124.847 79.9746C119.896 88.5188 110.55 101.568 97.6219 106.159L92.2986 120.762C93.7131 123.511 95.4926 128.475 95.4926 136.064C95.4627 140.814 94.8392 145.541 93.637 150.13C93.5001 150.713 93.348 151.288 93.2035 151.878C91.6897 157.212 90.9216 162.737 90.9221 168.291C90.9221 174.66 91.8879 179.227 94.0629 183.111C95.2081 185.111 96.7649 186.834 98.6257 188.16C103.295 190.335 109.516 191.474 117.288 191.578C133.09 172.874 143.44 156.461 148.056 142.775C150.346 136.346 151.53 129.56 151.555 122.719C151.555 115.674 150.498 112.746 149.387 109.639C149.228 109.219 149.075 108.8 148.931 108.38Z" fill="#455A64"/>
<path d="M97.6219 106.159L92.2986 120.762C93.7131 123.511 95.4926 128.475 95.4926 136.064C95.4627 140.814 94.8392 145.541 93.637 150.13C93.5001 150.713 93.348 151.288 93.2035 151.878C91.6897 157.212 90.9216 162.737 90.9221 168.291C90.9221 174.66 91.8879 179.227 94.0629 183.111C95.2081 185.112 96.7649 186.834 98.6257 188.16C103.295 190.335 109.516 191.474 117.288 191.578V137.749L124.892 135.419V79.9746C122.647 83.8609 120.105 87.5594 117.288 91.0355C112.215 97.2728 105.599 103.324 97.6219 106.159Z" fill="#37474F"/>
<path d="M135.547 117.88C135.465 117.728 135.368 117.584 135.258 117.453L135.22 117.406C134.998 117.159 134.742 116.947 134.459 116.777L131.927 115.286C131.47 115.024 130.978 114.83 130.467 114.711C130.161 114.642 129.851 114.593 129.539 114.563V106.904C129.539 103.06 128.117 100.022 125.638 98.5622C123.159 97.1019 120.314 97.3505 117.402 99.0904C111.987 102.283 107.751 110.074 107.751 116.824V125.865L102.702 128.84C102.552 128.928 102.409 129.03 102.276 129.143L102.139 129.251C101.933 129.42 101.764 129.633 101.644 129.874C101.525 130.115 101.458 130.38 101.447 130.65V161.665C101.45 161.799 101.468 161.932 101.5 162.061C101.66 162.583 101.997 163.03 102.451 163.32L102.732 163.506L103.972 164.236L105.272 165.013C105.78 165.3 106.329 165.502 106.9 165.611C108.456 165.962 110.083 165.748 111.501 165.005L134.49 151.451C134.845 151.29 135.152 151.035 135.379 150.713C135.606 150.391 135.746 150.013 135.782 149.618V118.618C135.764 118.356 135.683 118.102 135.547 117.88ZM112.695 116.824C112.695 111.883 115.98 105.778 119.866 103.487C121.189 102.71 122.375 102.508 123.128 102.959C124.018 103.479 124.543 104.955 124.543 106.904V115.946L118.01 119.83L112.687 122.937L112.695 116.824Z" fill="#263238"/>
<path d="M138.406 119.985C138.37 119.589 138.231 119.211 138.004 118.889C137.777 118.566 137.469 118.312 137.113 118.152L134.581 116.653C133.617 116.149 132.55 115.887 131.467 115.887C130.384 115.887 129.317 116.149 128.353 116.653L105.364 130.207C105.008 130.369 104.7 130.625 104.473 130.949C104.246 131.272 104.107 131.651 104.071 132.048V163.063C104.105 163.46 104.243 163.841 104.47 164.165C104.698 164.489 105.006 164.744 105.364 164.904L107.896 166.403C108.862 166.901 109.928 167.16 111.01 167.16C112.092 167.16 113.158 166.901 114.124 166.403L137.113 152.841C137.469 152.68 137.776 152.426 138.003 152.104C138.23 151.781 138.369 151.403 138.406 151.008V119.985Z" fill="#4672A4"/>
<path opacity="0.4" d="M107.896 135.419L105.364 133.865C103.637 132.856 103.637 131.209 105.364 130.191L128.353 116.637C129.317 116.134 130.384 115.872 131.467 115.872C132.55 115.872 133.617 116.134 134.581 116.637L137.113 118.136C138.832 119.146 138.832 120.793 137.113 121.802L114.162 135.419C113.192 135.923 112.118 136.186 111.029 136.186C109.94 136.186 108.867 135.923 107.896 135.419Z" fill="white"/>
<path opacity="0.1" d="M111.014 136.141V167.157C109.927 167.174 108.854 166.906 107.896 166.38L105.356 164.935C104.999 164.774 104.69 164.517 104.464 164.192C104.238 163.866 104.102 163.485 104.071 163.087V132.048C104.105 132.443 104.243 132.821 104.469 133.143C104.695 133.466 105.001 133.72 105.356 133.881L107.896 135.38C108.854 135.904 109.928 136.166 111.014 136.141Z" fill="black"/>
<path d="M127.744 151.482L122.254 154.721L123.105 144.577C122.451 144.219 122.033 143.349 122.033 142.099C122.033 139.862 123.356 137.268 124.999 136.304C126.642 135.341 127.965 136.359 127.965 138.635C127.931 139.956 127.562 141.247 126.893 142.379L127.744 151.482Z" fill="#455A64"/>
<path d="M127.744 151.482L122.771 148.554L122.254 154.721L127.744 151.482Z" fill="#37474F"/>
<path d="M124.999 136.304C123.803 137.128 122.912 138.337 122.467 139.738L126.893 142.347C127.562 141.216 127.931 139.925 127.965 138.604C127.965 136.359 126.642 135.333 124.999 136.304Z" fill="#37474F"/>
<path d="M132.193 120.661V108.233C132.193 104.349 130.771 101.351 128.292 99.8904C125.813 98.4301 122.969 98.6864 120.056 100.419C114.641 103.611 110.406 111.402 110.406 118.152V130.618C110.428 130.846 110.51 131.063 110.644 131.247C110.778 131.43 110.959 131.573 111.166 131.659C111.71 131.939 112.31 132.084 112.919 132.084C113.528 132.084 114.128 131.939 114.672 131.659C114.879 131.573 115.06 131.43 115.194 131.247C115.328 131.063 115.41 130.846 115.432 130.618V118.191C115.432 113.25 118.717 107.145 122.604 104.854C123.927 104.077 125.121 103.883 125.874 104.326C126.756 104.846 127.288 106.322 127.288 108.271V120.699C127.312 120.925 127.395 121.139 127.529 121.32C127.663 121.5 127.843 121.64 128.048 121.725C128.592 122.004 129.193 122.15 129.801 122.15C130.41 122.15 131.01 122.004 131.554 121.725C131.758 121.637 131.936 121.497 132.07 121.317C132.203 121.137 132.288 120.924 132.315 120.699L132.193 120.661Z" fill="#E0E0E0"/>
<path d="M161.745 175.196L165.091 173.223L166.414 171.576L163.068 173.549L161.745 175.196Z" fill="#4672A4"/>
<path opacity="0.4" d="M161.745 175.196L165.091 173.223L166.414 171.576L163.068 173.549L161.745 175.196Z" fill="black"/>
<path d="M170.848 180.563L174.194 178.59L176.993 176.058L173.646 178.031L170.848 180.563Z" fill="#4672A4"/>
<path opacity="0.4" d="M170.848 180.563L174.194 178.59L176.993 176.058L173.646 178.031L170.848 180.563Z" fill="black"/>
<path d="M199.335 187.383C200.127 188.467 200.607 189.756 200.719 191.104C199.934 190.016 199.455 188.729 199.335 187.383ZM207.115 187.484C205.989 179.655 201.875 171.949 196.963 169.013C194.605 167.623 192.4 167.576 190.681 168.617L187.533 170.473L187.35 170.582C187.21 170.66 187.075 170.748 186.947 170.846C186.678 171.027 186.423 171.229 186.187 171.452L186.08 171.553C185.981 171.654 185.882 171.771 185.791 171.879C185.7 171.988 185.555 172.159 185.457 172.299C185.229 172.605 185.024 172.927 184.841 173.262C184.749 173.433 184.65 173.611 184.567 173.798L157.045 157.572L153.699 159.537V161.719L153.988 161.883L154.254 162.046V162.504L153.699 162.83V164.096L157.745 172.835L161.745 175.165L163.068 173.518L166.597 175.678L168.62 179.22L170.855 180.532L173.646 178L177.076 180.027L178.232 184.882L183.981 188.276C184.273 189.514 184.636 190.733 185.069 191.927L185.198 192.308C187.114 197.434 190.156 201.831 193.563 203.858C193.978 204.101 194.41 204.311 194.856 204.487C195.092 204.583 195.334 204.666 195.578 204.736C195.789 204.796 196.002 204.845 196.217 204.883C196.891 205.012 197.582 205.012 198.255 204.883L198.537 204.813C198.67 204.79 198.8 204.751 198.925 204.697L199.221 204.58C199.329 204.539 199.433 204.49 199.533 204.433L199.814 204.285L199.959 204.2L200.027 204.161L203.183 202.305C205.723 200.798 207.373 196.992 207.373 191.609C207.376 190.22 207.277 188.834 207.077 187.461L207.115 187.484Z" fill="#4672A4"/>
<path d="M198.316 193.986C197.001 193.209 195.928 190.879 195.928 188.82C195.928 186.762 197.001 185.713 198.316 186.49C199.632 187.267 200.712 189.597 200.712 191.663C200.712 193.729 199.639 194.762 198.316 193.986ZM203.738 189.457C202.613 181.628 198.491 173.883 193.578 170.986C191.297 169.65 189.206 169.549 187.495 170.473L187.312 170.582C187.172 170.66 187.037 170.748 186.909 170.846C186.64 171.027 186.385 171.229 186.149 171.452L186.042 171.553C185.943 171.654 185.844 171.771 185.753 171.879C185.662 171.988 185.517 172.159 185.419 172.299C185.191 172.605 184.986 172.927 184.803 173.262C184.711 173.433 184.612 173.612 184.529 173.798C184.035 174.855 183.677 175.972 183.464 177.122L153.707 159.537V161.72L153.996 161.883L154.262 162.046V162.504L153.707 162.83V164.096L157.753 172.835L161.753 175.165L163.076 173.518L166.604 175.678L168.627 179.22L170.863 180.532L173.654 178L177.084 180.027L178.24 184.882L183.989 188.277C184.281 189.514 184.644 190.733 185.076 191.927L185.206 192.308C187.122 197.434 190.164 201.831 193.571 203.858C193.985 204.101 194.418 204.311 194.864 204.487C195.1 204.583 195.341 204.666 195.586 204.736C195.796 204.796 196.01 204.845 196.225 204.883C196.898 205.012 197.589 205.012 198.263 204.883L198.544 204.813C198.678 204.79 198.808 204.751 198.932 204.697L199.229 204.58C199.336 204.539 199.44 204.49 199.54 204.433L199.822 204.285L199.966 204.2L200.035 204.161C202.468 202.608 204.035 198.84 204.035 193.582C204.033 192.201 203.933 190.823 203.738 189.457Z" fill="#4672A4"/>
<path opacity="0.4" d="M200.712 191.632C200.712 193.714 199.639 194.739 198.324 193.962C197.008 193.186 195.928 190.855 195.928 188.797C195.928 186.739 197.001 185.69 198.324 186.467C198.716 186.701 199.06 187.013 199.335 187.383C199.451 188.73 199.93 190.018 200.719 191.104C200.728 191.28 200.725 191.456 200.712 191.632Z" fill="black"/>
<path opacity="0.4" d="M207.389 191.632C207.389 197.015 205.738 200.821 203.198 202.328L200.042 204.184C202.476 202.631 204.043 198.864 204.043 193.605C204.039 192.217 203.937 190.831 203.738 189.457C202.613 181.628 198.491 173.883 193.578 170.986C191.297 169.65 189.206 169.549 187.495 170.473L190.643 168.617C192.392 167.576 194.567 167.623 196.924 169.013C201.837 171.926 205.951 179.693 207.077 187.461C207.283 188.841 207.387 190.236 207.389 191.632Z" fill="white"/>
<path d="M204.043 193.605C204.043 198.864 202.476 202.615 200.042 204.184L203.198 202.328C205.738 200.821 207.389 197.015 207.389 191.632C207.389 191.43 207.389 191.228 207.389 191.034L204.05 193.007C204.035 193.201 204.043 193.403 204.043 193.605Z" fill="#4672A4"/>
<path opacity="0.1" d="M204.043 193.605C204.043 198.864 202.476 202.615 200.042 204.184L203.198 202.328C205.738 200.821 207.389 197.015 207.389 191.632C207.389 191.43 207.389 191.228 207.389 191.034L204.05 193.007C204.035 193.201 204.043 193.403 204.043 193.605Z" fill="black"/>
<path opacity="0.15" d="M183.624 179.359V180.47L153.699 162.83L154.254 162.504V162.038L183.624 179.359Z" fill="black"/>
<path opacity="0.15" d="M183.624 179.826V180.47L153.699 162.83L154.254 162.504V162.496L183.624 179.826Z" fill="black"/>
<path opacity="0.15" d="M196.643 202.359C195.51 202.327 194.405 201.989 193.442 201.38C188.559 198.498 184.59 189.939 184.59 182.296C184.59 177.837 185.913 174.528 188.217 173.145C189.829 172.198 191.73 172.314 193.723 173.487C198.598 176.369 202.567 184.929 202.567 192.572C202.567 197.03 201.244 200.339 198.94 201.722C198.244 202.141 197.451 202.361 196.643 202.359ZM190.559 173.083C189.849 173.082 189.151 173.272 188.536 173.635C186.438 174.87 185.19 178.109 185.19 182.296C185.19 189.76 188.993 198.095 193.761 200.883C195.571 201.955 197.274 202.071 198.704 201.233C200.803 199.998 202.05 196.759 202.05 192.572C202.05 185.107 198.248 176.765 193.48 173.984C192.589 173.421 191.568 173.109 190.521 173.083H190.559Z" fill="black"/>
<path opacity="0.5" d="M184.567 173.798C184.073 174.854 183.715 175.972 183.502 177.122L153.707 159.537L157.053 157.572L184.567 173.798Z" fill="white"/>
<path d="M298.197 259.698C298.311 260.762 298.455 263.745 303.748 264.491C309.041 265.236 312.372 263.442 313.786 260.84C315.201 258.238 314.874 256.117 315.094 253.71C315.315 251.302 317.269 250.02 317.832 248.777C318.653 246.952 317.452 244.117 317.452 244.117L298.197 259.698Z" fill="#263238"/>
<path d="M259.542 251.263C259.418 251.698 259.384 252.155 259.443 252.605C259.502 253.054 259.652 253.486 259.884 253.873C261.069 254.83 262.433 255.531 263.892 255.931C265.351 256.332 266.875 256.424 268.371 256.203C271.6 255.754 274.677 254.52 277.344 252.607C279.39 251.208 281.811 250.494 284.272 250.564C286.82 250.478 288.683 249.904 288.881 249.22C289.215 248.016 289.215 247.263 288.66 247.294L259.542 251.263Z" fill="#263238"/>
<path d="M316.189 239.953C315.528 244.886 306.166 244.49 306.927 240.552L305.261 228.582L315.855 228.916L316.189 239.953Z" fill="#FFA8A7"/>
<path d="M298.546 257.275C299.018 256.382 300.379 255.108 300.98 254.308C304.153 250.181 306.068 245.192 306.486 239.961C306.486 239.674 306.539 239.115 306.828 238.936C307.117 238.757 307.398 239.006 307.702 239.146C308.226 239.372 308.78 239.519 309.345 239.581C311.216 239.798 313.292 239.34 313.756 239.402C314.22 239.464 314.235 240.606 314.204 241.849C314.874 241.421 315.094 240.567 315.687 240.07C316.014 239.798 316.159 239.79 316.151 239.348C316.151 239.06 316.151 238.796 316.151 238.509C316.638 238.369 317.041 240.249 317.437 241.686C317.893 243.356 318.463 245.235 317.824 246.929C317.41 247.851 316.9 248.726 316.303 249.538C315.293 250.95 314.635 252.593 314.387 254.323C314.311 255.1 314.387 255.877 314.265 256.607C314.09 257.877 313.562 259.069 312.744 260.043C311.926 261.016 310.852 261.729 309.649 262.098C306.417 263.124 301.573 262.961 298.729 260.661C297.74 259.861 298.075 258.145 298.546 257.275Z" fill="#37474F"/>
<path d="M286.5 239.13C283.93 241.165 280.843 242.361 277.687 240.893L276.926 220.752L287.573 222.702L286.5 239.13Z" fill="#FFA8A7"/>
<path d="M261.694 247.783C262.401 247.55 263.093 247.294 263.778 247.006C265.689 246.211 267.536 245.26 269.299 244.163C270.059 243.682 270.82 243.177 271.58 242.61C272.341 242.043 273.101 241.429 273.861 240.808C274.257 240.453 274.617 240.057 274.934 239.627C275.574 238.826 276.111 237.943 276.531 237.002C276.594 236.78 276.735 236.589 276.926 236.466C277.055 236.42 277.193 236.41 277.327 236.437C277.461 236.464 277.585 236.528 277.687 236.621C277.87 236.773 278.066 236.909 278.272 237.025L278.896 237.289C279.561 237.567 280.264 237.742 280.979 237.81C283.672 238.05 283.755 237.499 283.869 238.384C283.895 238.715 283.895 239.048 283.869 239.379C285.291 239.138 286.409 238.672 286.47 238.12L286.637 236.365C288.052 236.233 288.158 238.819 288.615 241.724C288.987 244.055 289.542 245.771 288.904 247.503C286.767 249.406 282.995 248.948 280.85 249.305C277.808 249.818 276.386 252.117 272.166 253.609C265.321 256.017 261.055 253.244 259.778 252.055C258.949 250.556 258.781 248.731 261.694 247.783Z" fill="#37474F"/>
<path d="M313.201 120.024C313.741 128.568 314.722 141.081 315.064 150.954C315.703 169.502 315.452 190.653 315.452 190.653C316.468 194.543 317.122 198.522 317.406 202.538C317.84 214.391 317.764 241.002 317.764 241.002C317.764 241.002 312.95 245.95 305.756 242.066C305.756 242.066 299.375 204.782 297.596 193.069C295.892 181.923 292.569 159.669 292.569 159.669L291.048 191.298C292.203 196.268 292.585 201.392 292.181 206.483C291.793 211.921 288.759 238.726 288.759 238.726C285.991 241.375 277.93 239.93 276.166 237.825C276.166 237.825 273.344 198.211 273.025 192.479C272.348 180.105 270.546 133.959 271.451 126.797C272.356 119.635 313.201 120.024 313.201 120.024Z" fill="#263238"/>
<path d="M292.569 159.638L290.455 145.361C290.455 145.361 284.652 144.242 280.409 141.027C280.409 141.027 282.059 144.841 288.478 147.559L290.592 160.857L291.094 191.267L292.569 159.638Z" fill="black"/>
<path d="M304.425 62.7385C304.813 64.3463 307.467 64.0978 308.653 63.7949C309.357 63.6439 309.982 63.235 310.411 62.6454C310.839 62.0558 311.042 61.3263 310.98 60.5947C311.58 60.4308 312.122 60.0937 312.539 59.6237C312.82 59.2448 312.981 58.7873 313 58.3125C313.019 57.8377 312.895 57.3683 312.646 56.9673C313.127 56.6172 313.505 56.1386 313.739 55.5838C313.972 55.029 314.052 54.4193 313.969 53.8214C313.806 52.956 313.341 52.1803 312.661 51.6388C312.002 51.094 311.181 50.7953 310.334 50.7921C310.06 50.7921 309.786 51.3514 310.182 51.398C310.798 51.52 311.378 51.7859 311.877 52.1747C312.397 52.5459 312.799 53.0643 313.033 53.6661C313.18 54.1439 313.179 54.6559 313.032 55.1335C312.886 55.6111 312.599 56.0314 312.212 56.3381C312.073 56.1601 311.918 55.9963 311.748 55.8487C311.219 55.3655 310.525 55.1143 309.817 55.1497C309.555 55.1431 309.296 55.2125 309.071 55.3501C308.847 55.4876 308.665 55.6874 308.547 55.9264C308.364 56.5323 308.98 57.0449 309.436 57.309C309.768 57.5003 310.135 57.6172 310.514 57.6521C310.893 57.6869 311.275 57.6388 311.634 57.511C311.694 57.4911 311.752 57.4677 311.809 57.4411C311.849 57.5218 311.885 57.6048 311.915 57.6896C312.326 58.8004 311.665 59.4917 310.775 59.8024C310.235 58.6606 308.775 57.8294 307.604 58.4275C307.455 58.4938 307.325 58.5966 307.225 58.7268C307.124 58.857 307.057 59.0105 307.03 59.1736C307.002 59.3368 307.014 59.5044 307.065 59.6616C307.116 59.8187 307.204 59.9605 307.322 60.0742C307.809 60.5444 308.454 60.8058 309.125 60.8044C309.431 60.8274 309.738 60.8274 310.045 60.8044C310.112 61.3022 309.999 61.808 309.725 62.2258C309.45 62.5443 309.108 62.796 308.725 62.9627C308.342 63.1293 307.928 63.2066 307.512 63.189C306.568 63.2663 305.631 62.9624 304.904 62.3423C304.683 62.1482 304.364 62.4977 304.425 62.7385ZM311.368 56.7731C311.12 56.8449 310.861 56.8599 310.607 56.8169C310.353 56.774 310.112 56.6741 309.9 56.5245C309.581 56.307 309.223 55.9886 309.794 55.9497C310.101 55.9533 310.402 56.0295 310.676 56.1724C310.949 56.3153 311.186 56.5209 311.368 56.7731ZM309.779 59.9966C309.456 60.0102 309.134 59.9789 308.82 59.9034C308.592 59.849 307.596 59.3286 308.105 59.1266C308.493 58.948 309.178 59.3441 309.452 59.5927C309.578 59.7119 309.688 59.8477 309.779 59.9966Z" fill="#263238"/>
<path d="M306.273 32.694C306.439 32.718 306.604 32.7518 306.767 32.7949C306.651 32.2824 306.708 31.7447 306.929 31.2695C307.15 30.7942 307.521 30.4092 307.984 30.1773C308.575 29.9352 309.235 29.9376 309.824 30.1841C310.413 30.4306 310.885 30.9018 311.14 31.4978L307.695 33.1056C308.814 33.5125 309.748 34.3252 310.318 35.3893C311.261 37.3777 310.014 41.6032 308.759 46.8075C308.052 50.0896 307.125 53.3181 305.984 56.4702C305.406 58.0237 304.364 58.0237 304.364 58.0237V52.8272L304.584 48.5163C304.584 48.5163 301.877 44.7335 301.581 41.6343C301.193 37.6496 302.014 36.0184 302.014 36.0184L306.273 32.694Z" fill="#263238"/>
<path d="M287.55 28.2277C289.25 28.2308 290.911 28.749 292.323 29.7167C293.735 30.6844 294.834 32.0581 295.481 33.664C296.128 35.2699 296.295 37.0358 295.959 38.7382C295.623 40.4407 294.8 42.0031 293.595 43.2278C292.39 44.4526 290.856 45.2845 289.187 45.6184C287.518 45.9523 285.79 45.7731 284.222 45.1036C282.653 44.434 281.314 43.3042 280.374 41.8571C279.434 40.4099 278.935 38.7105 278.941 36.9739C278.944 35.8222 279.17 34.6825 279.604 33.6197C280.038 32.5569 280.673 31.5919 281.472 30.7797C282.272 29.9676 283.22 29.3242 284.263 28.8863C285.305 28.4484 286.423 28.2246 287.55 28.2277Z" fill="#263238"/>
<path d="M304.425 47.8327C305.444 48.7337 306.273 46.4035 307.132 45.5025C307.991 44.6014 310.775 43.3509 312.159 46.3491C313.543 49.3474 310.881 53.5496 308.79 54.536C305.748 55.9886 304.364 52.8427 304.364 52.8427V65.8533C301.147 71.7721 294.189 70.3895 290.896 71.2206C290.405 69.7076 290.405 68.0731 290.896 66.5601V62.3268C289.511 62.5985 288.096 62.6743 286.691 62.5521C283.907 62.1016 282.417 59.7636 281.588 56.6876C280.249 51.7475 279.968 43.4441 281.831 33.8513C284.949 31.3967 295.482 31.8007 301.999 35.9951C301.543 44.5393 303.406 46.9317 304.425 47.8327Z" fill="#FFA8A7"/>
<path d="M290.904 62.3268C290.904 62.3268 297.109 61.0762 299.269 59.9033C300.561 59.2371 301.623 58.1826 302.311 56.8818C301.979 58.1789 301.395 59.3942 300.592 60.4548C299.003 62.521 290.911 64.0201 290.911 64.0201L290.904 62.3268Z" fill="#F28F8F"/>
<path d="M277.58 42.6984C277.633 43.1996 277.831 43.6732 278.151 44.0577C278.256 44.2046 278.334 44.3707 278.379 44.5471C278.539 45.7874 278.793 47.0132 279.139 48.2133C279.419 49.0101 279.936 49.6971 280.618 50.1778C281.3 50.6585 282.113 50.9087 282.941 50.8931C283.379 50.9148 283.818 50.8861 284.249 50.8077C284.282 50.8129 284.316 50.8129 284.348 50.8077C284.727 50.7313 285.091 50.595 285.428 50.4038H285.489L285.588 50.3416L285.694 50.2562C285.734 50.2375 285.771 50.2111 285.801 50.1785C285.846 50.1545 285.887 50.123 285.923 50.0853L286.029 49.9765L286.242 49.7668C286.602 49.3584 286.898 48.8944 287.116 48.392C287.702 47.1259 287.588 45.3316 288.501 45.1529C288.538 45.1566 288.577 45.1566 288.615 45.1529H288.736C289.983 45.1995 289.801 47.1414 290.47 48.5473C290.841 49.4374 291.469 50.1901 292.272 50.704C293.074 51.2179 294.011 51.4682 294.957 51.4213H295.299H295.581C295.797 51.4092 296.013 51.3832 296.227 51.3436L296.432 51.297L296.63 51.2426H296.752C297.015 51.1556 297.269 51.0438 297.512 50.9086C297.596 50.8465 297.679 50.7999 297.763 50.7455C297.912 50.6297 298.054 50.5052 298.189 50.3727C298.546 50.0041 298.83 49.569 299.025 49.0911C299.396 47.9153 299.668 46.7096 299.839 45.4869C299.878 45.3017 299.951 45.1253 300.052 44.9665C300.384 44.6109 300.604 44.1618 300.683 43.6771C300.704 43.4238 300.64 43.1707 300.502 42.9592C300.364 42.7476 300.16 42.59 299.923 42.512L299.269 42.4033C297.147 42.1003 294.379 41.9294 292.714 42.3567C290.615 42.8926 289.877 43.5606 288.721 43.5218C287.565 43.4829 286.957 42.745 284.987 42.0537C283.466 41.4945 280.835 41.4712 278.858 41.611C278.637 41.611 278.447 41.611 278.242 41.6576C277.915 41.5954 277.55 42.1159 277.58 42.6984ZM291.231 44.2985C291.395 44.0976 291.6 43.9358 291.831 43.8247C291.868 43.801 291.906 43.7802 291.945 43.7626H291.999C292.1 43.7237 292.199 43.6796 292.295 43.6305C292.379 43.6305 292.478 43.5684 292.569 43.5295C292.862 43.4194 293.162 43.3286 293.466 43.2577L293.824 43.18C294.12 43.1256 294.432 43.079 294.736 43.048H294.957C296.957 42.9237 298.197 43.4286 298.638 43.8247C299.079 44.2208 298.851 46.1549 298.638 47.1026C298.638 47.1026 298.638 47.1569 298.638 47.1725C298.644 47.1979 298.644 47.2247 298.638 47.2502C298.616 47.3791 298.586 47.5063 298.546 47.6308C298.531 47.713 298.508 47.7935 298.478 47.8716C298.432 48.0036 298.387 48.1356 298.333 48.2755C298.321 48.3228 298.3 48.3676 298.273 48.4075C298.266 48.4386 298.253 48.4678 298.235 48.493C298.235 48.493 298.235 48.5473 298.235 48.5784L298.174 48.6949C298.174 48.7415 298.128 48.7804 298.098 48.8192C298.077 48.8676 298.049 48.9122 298.014 48.9512C297.991 48.998 297.963 49.0423 297.93 49.0833C297.61 49.5304 297.182 49.885 296.687 50.1124C296.193 50.3398 295.649 50.4321 295.109 50.3804C294.556 50.4157 294.002 50.3284 293.485 50.1247C292.967 49.9209 292.499 49.6054 292.113 49.1998C291.638 48.6424 291.316 47.9674 291.177 47.2424C290.949 46.1316 290.828 44.8733 291.231 44.2985ZM279.481 43.0713C279.622 42.9322 279.791 42.8262 279.976 42.7606L280.189 42.6751H280.318H280.432H280.508H280.622C280.775 42.6431 280.93 42.6198 281.086 42.6052H281.337H281.481C281.522 42.6128 281.563 42.6128 281.603 42.6052C281.709 42.5976 281.816 42.5976 281.922 42.6052H282.151C282.459 42.6217 282.766 42.6554 283.071 42.7062C284.493 42.947 285.976 43.6538 286.348 44.2597C286.721 44.8655 286.615 46.1006 286.409 47.1725C286.361 47.4122 286.298 47.6483 286.219 47.8793C286.213 47.897 286.213 47.9161 286.219 47.9337C286.222 47.9595 286.222 47.9856 286.219 48.0114C286.219 48.0114 286.219 48.0114 286.219 48.058C286.208 48.0871 286.195 48.1156 286.181 48.1434C286.181 48.2056 286.128 48.2599 286.097 48.3143C286.075 48.3676 286.05 48.4195 286.021 48.4697V48.5163L285.961 48.625L285.9 48.7104C285.568 49.1919 285.113 49.5706 284.584 49.8049C284.056 50.0392 283.474 50.1201 282.903 50.0387C282.373 50.0255 281.852 49.8873 281.383 49.6348C279.983 48.858 279.656 47.2424 279.497 46.5278C279.284 45.3782 279.048 43.4674 279.481 43.0713Z" fill="#263238"/>
<path d="M299.794 42.4421L308.919 44.5315C308.095 44.7481 307.362 45.2303 306.828 45.9064L299.786 44.5393L299.794 42.4421Z" fill="#263238"/>
<path d="M279.481 46.3569C279.641 47.1337 279.968 48.7415 281.367 49.4639C281.837 49.7165 282.358 49.8547 282.888 49.8678C283.459 49.9493 284.041 49.8684 284.569 49.6341C285.098 49.3997 285.553 49.021 285.884 48.5396L285.945 48.4542L286.006 48.3454V48.2988C286.035 48.2486 286.06 48.1967 286.082 48.1435C286.082 48.0891 286.135 48.0347 286.166 47.9726C286.18 47.9448 286.193 47.9163 286.204 47.8871C286.204 47.8871 286.204 47.8871 286.204 47.8405C286.207 47.8147 286.207 47.7887 286.204 47.7629C286.198 47.7452 286.198 47.7261 286.204 47.7085C286.283 47.4775 286.346 47.2413 286.394 47.0016C286.599 45.9297 286.713 44.6714 286.333 44.0888C285.953 43.5063 284.478 42.7684 283.056 42.5353C282.751 42.4846 282.444 42.4508 282.135 42.4344H281.907C281.801 42.4267 281.694 42.4267 281.588 42.4344C281.548 42.442 281.506 42.442 281.466 42.4344H281.322H281.071C280.915 42.4489 280.76 42.4723 280.607 42.5043H280.493H280.417H280.303H280.173L279.96 42.5897C279.775 42.6553 279.607 42.7614 279.466 42.9004C279.048 43.4674 279.284 45.3782 279.481 46.3569Z" fill="#37474F"/>
<path d="M291.177 47.2113C291.311 47.9472 291.633 48.6336 292.113 49.1997C292.49 49.6028 292.947 49.9193 293.453 50.1283C293.959 50.3372 294.503 50.4337 295.048 50.4115C295.588 50.4632 296.132 50.3708 296.627 50.1434C297.121 49.916 297.549 49.5614 297.87 49.1143C297.902 49.0733 297.93 49.0291 297.953 48.9823C297.988 48.9432 298.016 48.8986 298.037 48.8502C298.037 48.8114 298.083 48.7725 298.113 48.7259L298.174 48.6094C298.174 48.6094 298.174 48.555 298.174 48.524C298.193 48.4988 298.206 48.4696 298.212 48.4385C298.24 48.3986 298.26 48.3539 298.273 48.3065C298.326 48.1667 298.371 48.0346 298.417 47.9026C298.447 47.8246 298.47 47.744 298.486 47.6618C298.525 47.5373 298.555 47.4101 298.577 47.2812C298.584 47.2558 298.584 47.2289 298.577 47.2035C298.577 47.2035 298.577 47.1569 298.577 47.1336C298.782 46.186 299.033 44.2907 298.577 43.8557C298.121 43.4207 296.896 42.9159 294.896 43.079H294.676C294.371 43.079 294.06 43.1567 293.763 43.211L293.406 43.2887C293.101 43.3596 292.801 43.4504 292.508 43.5606C292.417 43.5606 292.318 43.6227 292.234 43.6615C292.138 43.7106 292.039 43.7547 291.938 43.7936H291.885C291.845 43.8112 291.807 43.832 291.771 43.8557C291.539 43.9668 291.334 44.1286 291.17 44.3295C290.828 44.8733 290.949 46.1316 291.177 47.2113Z" fill="#37474F"/>
<path d="M279.725 27.0703C279.725 26.9693 279.725 26.8606 279.763 26.7519C279.775 26.5511 279.847 26.359 279.968 26.2004C280.386 25.7576 281.223 26.8761 281.489 27.1325C281.774 27.3858 282.071 27.6243 282.379 27.8471C282.669 27.9947 282.949 28.1634 283.215 28.352C283.029 27.2963 283.029 26.2152 283.215 25.1595C283.345 24.4605 283.535 22.8293 284.386 22.6662C284.888 22.5574 285.329 22.9924 285.702 23.3497C289.101 26.5965 293.542 25.0974 297.634 25.2294C301.064 25.3382 305.193 26.7829 306.759 30.1695C307.467 31.723 307.588 33.362 306.189 34.4339C305.292 35.133 304.41 35.1019 303.908 36.2126C303.786 36.4845 303.003 39.7934 303.467 39.7624C302.627 39.8499 301.784 39.6301 301.087 39.1423C300.391 38.6544 299.887 37.9301 299.664 37.0981C299.581 36.7331 299.391 36.0728 299.314 35.7C299.296 35.5907 299.254 35.4868 299.193 35.3952C299.132 35.3037 299.052 35.2266 298.959 35.1692C298.866 35.1118 298.762 35.0754 298.654 35.0624C298.546 35.0495 298.437 35.0603 298.333 35.0941C297.292 35.3271 296.615 35.7621 295.634 36.034C292.832 36.8569 289.887 37.0346 287.01 36.5544C284.95 36.1551 283.06 35.1193 281.595 33.5872C280.852 32.6967 280.301 31.6559 279.979 30.5328C279.656 29.4098 279.57 28.2299 279.725 27.0703Z" fill="#263238"/>
<path d="M293.086 40.7254L296.128 41.1993C296.181 40.7834 296.075 40.3628 295.831 40.0254C295.587 39.6881 295.225 39.4602 294.82 39.3894C294.62 39.3588 294.416 39.3692 294.22 39.4201C294.024 39.4709 293.84 39.5612 293.678 39.6856C293.517 39.81 293.381 39.966 293.28 40.1446C293.178 40.3231 293.112 40.5206 293.086 40.7254Z" fill="#263238"/>
<path d="M292.387 55.0021L289.854 55.6778C289.89 55.8502 289.959 56.0134 290.058 56.1578C290.157 56.3022 290.283 56.4248 290.429 56.5183C290.576 56.6118 290.739 56.6743 290.909 56.702C291.079 56.7298 291.253 56.7222 291.421 56.6798C291.763 56.5814 292.054 56.3519 292.234 56.0393C292.414 55.7266 292.469 55.355 292.387 55.0021Z" fill="#F28F8F"/>
<path d="M281.694 40.9041L284.736 40.5624C284.724 40.3586 284.671 40.1595 284.582 39.9771C284.492 39.7947 284.367 39.6329 284.214 39.5014C284.061 39.3699 283.883 39.2715 283.692 39.2122C283.501 39.1529 283.3 39.134 283.101 39.1564C282.692 39.209 282.319 39.4194 282.057 39.7444C281.796 40.0694 281.666 40.4844 281.694 40.9041Z" fill="#263238"/>
<path d="M289.071 45.1763L288.66 52.4233L284.706 51.367L288.653 45.0908C288.797 45.086 288.94 45.1153 289.071 45.1763Z" fill="#F28F8F"/>
<path d="M306.06 50.2096C306.058 50.5848 306.166 50.952 306.369 51.2646C306.572 51.5773 306.861 51.8215 307.2 51.9661C307.539 52.1108 307.912 52.1494 308.273 52.0771C308.633 52.0049 308.964 51.825 309.225 51.5603C309.485 51.2955 309.662 50.9578 309.735 50.59C309.807 50.2221 309.771 49.8406 309.63 49.4939C309.49 49.1471 309.252 48.8507 308.947 48.6421C308.642 48.4335 308.283 48.3221 307.915 48.3221C307.672 48.3211 307.431 48.3691 307.206 48.4635C306.981 48.5579 306.776 48.6968 306.604 48.8722C306.431 49.0475 306.295 49.256 306.201 49.4855C306.108 49.715 306.06 49.9611 306.06 50.2096Z" fill="#263238"/>
<path d="M305.862 46.7531C306.021 46.1801 306.302 45.6498 306.683 45.1996C306.877 45.0106 307.109 44.8669 307.362 44.7784C307.616 44.6898 307.885 44.6586 308.151 44.6869C308.151 44.6869 308.204 44.7491 308.151 44.7646C307.946 44.8889 307.801 44.9588 307.596 45.1064C307.391 45.2478 307.203 45.4119 307.033 45.5957C306.884 45.772 306.764 45.9713 306.676 46.1861C306.567 46.4324 306.495 46.6944 306.463 46.9628C306.413 47.3856 306.473 47.8143 306.638 48.2056C306.723 48.4225 306.841 48.6244 306.988 48.8037C307.146 48.9352 307.284 49.0896 307.398 49.262C307.512 49.5028 307.185 49.9144 306.934 49.7746C306.459 49.4693 306.102 49.0056 305.923 48.4619C305.7 47.9188 305.678 47.3113 305.862 46.7531Z" fill="#263238"/>
<path d="M279.504 72.5566C276.934 74.281 273.382 76.518 272.515 78.9492C271.649 81.3804 269.147 95.4784 268.873 100.022C271.152 101.119 273.593 101.822 276.097 102.104L279.504 72.5566Z" fill="#455A64"/>
<path d="M309.87 65.8377C316.379 69.4884 322.798 74.9412 324.182 77.0384C324.182 77.0384 320.38 89.9868 317.026 96.1308C313.672 102.275 311.877 120.443 311.877 120.443C311.877 120.443 288.942 128.21 281.755 128.824C274.569 129.438 273.656 126.315 273.656 126.315C273.656 126.315 273.504 106.003 275.177 92.4491C276.85 78.8948 276.485 74.8635 279.527 72.5566C281.497 71.073 289.983 67.3135 289.983 67.3135V71.1973C294.622 71.2905 309.87 65.8377 309.87 65.8377Z" fill="#37474F"/>
<path d="M288.196 73.2791C287.775 72.4027 287.607 71.4222 287.71 70.4517L289.626 69.0303V71.4926L288.196 73.2791Z" fill="#4672A4"/>
<path opacity="0.25" d="M288.196 73.2791C287.775 72.4027 287.607 71.4222 287.71 70.4517L289.626 69.0303V71.4926L288.196 73.2791Z" fill="black"/>
<path d="M291.923 71.7799L296.881 68.8904L300.607 71.9042L293.079 75.0966L291.923 71.7799Z" fill="#4672A4"/>
<path opacity="0.25" d="M291.923 71.7799L296.881 68.8904L300.607 71.9042L293.079 75.0966L291.923 71.7799Z" fill="black"/>
<path d="M304.364 60.3383V61.3636C304.174 62.3346 302.303 64.5871 297.581 66.7465C292.858 68.9058 290.896 71.2128 290.896 71.2128C292.172 71.2477 293.434 71.4862 294.638 71.9196C296.79 72.6964 300.364 75.4927 301.383 75.4616C302.402 75.4305 303.809 72.5566 306.478 69.6904C308.76 67.2824 309.87 65.8066 309.87 65.8066C309.87 65.8066 306.204 60.3616 304.364 60.3383Z" fill="#455A64"/>
<path d="M290.896 71.2128C289.185 71.407 287.58 72.6187 287.162 71.9895C286.744 71.3604 288.196 65.5115 290.881 63.7327L290.896 71.2128Z" fill="#455A64"/>
<path d="M274.318 101.863C274.318 101.863 274.112 105.491 274.059 106.734C274.006 107.976 276.036 129.259 276.036 129.259L268.873 132.366C268.873 132.366 268.006 124.164 267.724 119.596C267.492 114.893 267.699 110.178 268.34 105.514C268.903 101.63 269.101 100.139 269.101 100.139C270.777 100.895 272.525 101.473 274.318 101.863Z" fill="#F28F8F"/>
<path d="M269.451 142.767C269.451 142.767 269.451 143.093 269.451 144.32C269.63 146.374 270.033 148.401 270.652 150.363C271.101 151.513 272.173 154.037 272.736 154.333C273.268 154.635 273.884 154.748 274.485 154.651C275.618 154.542 276.805 155.14 277.877 154.612C278.292 154.381 278.731 154.196 279.185 154.061C279.846 153.898 280.607 154.099 281.2 153.742C281.58 153.517 281.816 153.097 282.189 152.864C282.736 152.523 283.459 152.647 284.044 152.375C284.275 152.255 284.479 152.088 284.645 151.885C284.811 151.682 284.935 151.447 285.01 151.194C285.345 150.169 285.01 149.012 284.812 147.986C285.164 147.482 285.343 146.873 285.322 146.254C285.344 144.927 285.193 143.603 284.873 142.316C284.622 141.539 279.421 138.518 279.421 138.518L278.394 137.827C276.212 137.33 273.926 137.705 272.006 138.875C268.956 140.856 269.451 142.767 269.451 142.767Z" fill="#FFA8A7"/>
<path d="M270.858 142.619C269.481 144.949 270.287 149.152 270.295 149.198C269.864 147.608 269.581 145.98 269.451 144.336C269.451 143.093 269.451 142.782 269.451 142.782C269.451 142.782 268.956 140.84 271.968 138.899C273.888 137.729 276.174 137.353 278.356 137.85C278.356 137.85 272.234 140.266 270.858 142.619Z" fill="#F28F8F"/>
<path d="M284.774 147.963C284.289 146.448 283.539 145.035 282.561 143.792C281.983 143.248 281.497 142.557 282.075 142.79C282.652 143.023 283.459 143.155 283.778 142.744C284.097 142.332 284.166 143.046 283.778 143.606C283.39 144.165 283.717 144.592 284.135 145.509C284.456 146.294 284.671 147.119 284.774 147.963Z" fill="#F28F8F"/>
<path d="M322.197 77.2947C324.364 78.0714 324.653 84.1301 324.182 89.5673C323.71 95.0045 319.558 107.86 317.665 112.334C315.543 117.359 314.258 120.257 312.843 121.833C311.429 123.41 308.471 124.707 304.683 126.711C301.261 128.521 298.919 129.438 293.079 131.286C286.493 133.376 283.953 133.5 282.554 134.502C281.154 135.504 280.759 137.679 279.382 138.495L278.356 137.803C276.041 138.371 273.83 139.315 271.808 140.6C270.903 141.173 270.104 141.907 269.451 142.767V144.32C269.451 144.32 267.785 145.035 266.371 141.99C264.956 138.945 264.31 134.378 265.937 132.382C267.565 130.385 272.721 127.651 276.903 126.315C281.086 124.979 283.162 123.581 288.044 120.567C293.246 117.359 296.858 115.223 299.451 113.778C300.432 113.196 301.094 112.489 301.535 110.671C301.885 109.211 302.927 104.893 303.566 101.646C304.585 96.2162 306.874 79.7958 322.197 77.2947Z" fill="#FFA8A7"/>
<path d="M324.182 77.0384C324.182 77.0384 325.193 77.2171 325.33 81.5203C325.51 85.5919 325.319 89.6719 324.76 93.7074C324.205 97.0086 320.957 106.757 320.957 106.757C320.957 106.757 311.626 109.864 302.075 106.159C302.075 106.159 304.318 92.0996 305.162 88.3712C306.007 84.6428 317.832 73.1392 324.182 77.0384Z" fill="#455A64"/>
<path d="M291.162 77.318C290.63 80.8133 289.9 89.1168 289.9 100.838C289.9 103.712 285.793 109.545 284.828 109.421C283.862 109.297 282.09 103.813 281.839 100.628C282.227 92.9228 286.79 80.9687 288.782 76.883L291.162 77.318Z" fill="#4672A4"/>
<path opacity="0.15" d="M288.63 77.217C288.674 77.1029 288.725 76.9914 288.782 76.883L291.162 77.318L291.018 78.3433C290.122 78.246 289.283 77.8502 288.63 77.217Z" fill="black"/>
<path d="M291.923 71.7799C291.175 71.6002 290.41 71.5064 289.641 71.5002C289.035 71.9824 288.537 72.5915 288.181 73.2868C288.114 74.515 288.314 75.7432 288.767 76.8831C289.109 77.1283 289.499 77.2943 289.91 77.3694C290.321 77.4446 290.743 77.427 291.147 77.3181C291.985 76.7855 292.652 76.013 293.063 75.0966C293.122 73.8813 292.712 72.691 291.923 71.7799Z" fill="#4672A4"/>
</svg>
