<svg width="48" height="48" viewBox="0 0 48 48" fill="none" xmlns="http://www.w3.org/2000/svg">
<g id="Logo">
<g id="Vector 6">
<path d="M31.7731 19.2469L29.5673 17.6798C37.214 12.3838 34.224 8.24553 31.7731 6.83837C25.6772 5.3033 24.5097 9.86589 24.6879 12.3391C24.7681 15.5371 28.5313 19.1296 30.4029 20.5261L28.3976 21.1977C16.6335 14.1108 23.3511 1.78543 31.7731 4.34388C40.9638 8.85317 35.9841 16.3686 31.7731 19.2469Z" fill="#4672A4"/>
<path d="M21.3792 7.76583L22.5155 5.75104C20.1613 3.39726 16.2095 4.06672 14.528 4.69567C9.98273 7.35008 10.718 11.6355 10.718 11.9873C11.3329 16.1064 16.3438 19.8439 18.7724 21.1977C22.168 22.477 24.5319 22.0932 25.2895 21.7414L24.1532 20.5261C20.1961 20.1769 16.0876 16.4577 14.528 14.6417C13.4139 13.3625 11.8543 10.1964 14.528 7.76583C17.2016 5.33529 20.2095 6.7531 21.3792 7.76583Z" fill="#4672A4"/>
<path d="M12.389 30.6321C8.16466 32.7812 6.59611 37.4759 6.33989 39.5547C5.20358 34.8215 7.10285 29.8704 9.28091 27.6259C11.4533 25.3872 14.851 24.1933 16.4664 23.9801C18.4271 23.8202 23.184 23.9801 26.125 23.9801C29.1727 23.9801 27.7626 27.6259 26.125 27.9457C25.6437 28.1759 20.7331 28.3188 18.3379 28.3614C15.3434 28.5917 13.1243 29.9711 12.389 30.6321Z" fill="#4672A4"/>
<path d="M29.6676 26.4746C29.4671 27.0182 27.4952 29.129 25.0555 29.9605C33.0765 31.3676 36.4854 23.9801 36.2515 22.349C35.6165 20.814 33.6112 21.6886 33.2102 22.1891C32.8091 22.6897 30.6702 26.5385 29.6676 26.4746Z" fill="#4672A4"/>
<path d="M18.3379 30.6321C9.44801 32.0392 7.3982 40.109 7.54303 44C11.0188 33.8941 21.1453 35.8129 26.1584 37.9556C35.9841 39.7146 42.0333 23.1486 41.9999 21.1977C41.9664 19.2469 38.8917 19.1829 38.4573 21.1977C38.0228 23.2125 35.0672 31.0195 29.5673 31.8793C27.0256 32.2767 23.4847 31.4636 23.0503 30.9137C21.5123 30.6721 19.876 30.5162 18.3379 30.6321Z" fill="#4672A4"/>
</g>
</g>
</svg>
